  0
SECTION
  2
HEADER
  9
$ACADVER
  1
AC1014
  9
$ACADMAINTVER
 70
     9
  9
$DWGCODEPAGE
  3
ANSI_1252
  9
$INSBASE
 10
0.0
 20
0.0
 30
0.0
  9
$EXTMIN
 10
1.000000000000000E+20
 20
1.000000000000000E+20
 30
1.000000000000000E+20
  9
$EXTMAX
 10
-1.000000000000000E+20
 20
-1.000000000000000E+20
 30
-1.000000000000000E+20
  9
$LIMMIN
 10
0.0
 20
0.0
  9
$LIMMAX
 10
12.0
 20
9.0
  9
$ORTHOMODE
 70
     0
  9
$REGENMODE
 70
     1
  9
$FILLMODE
 70
     1
  9
$QTEXTMODE
 70
     0
  9
$MIRRTEXT
 70
     1
  9
$DRAGMODE
 70
     2
  9
$LTSCALE
 40
1.0
  9
$OSMODE
 70
    37
  9
$ATTMODE
 70
     1
  9
$TEXTSIZE
 40
0.2
  9
$TRACEWID
 40
0.05
  9
$TEXTSTYLE
  7
STANDARD
  9
$CLAYER
  8
0
  9
$CELTYPE
  6
BYLAYER
  9
$CECOLOR
 62
   256
  9
$CELTSCALE
 40
1.0
  9
$DELOBJ
 70
     1
  9
$DISPSILH
 70
     0
  9
$DIMSCALE
 40
1.0
  9
$DIMASZ
 40
0.18
  9
$DIMEXO
 40
0.0625
  9
$DIMDLI
 40
0.38
  9
$DIMRND
 40
0.0
  9
$DIMDLE
 40
0.0
  9
$DIMEXE
 40
0.18
  9
$DIMTP
 40
0.0
  9
$DIMTM
 40
0.0
  9
$DIMTXT
 40
0.18
  9
$DIMCEN
 40
0.09
  9
$DIMTSZ
 40
0.0
  9
$DIMTOL
 70
     0
  9
$DIMLIM
 70
     0
  9
$DIMTIH
 70
     1
  9
$DIMTOH
 70
     1
  9
$DIMSE1
 70
     0
  9
$DIMSE2
 70
     0
  9
$DIMTAD
 70
     0
  9
$DIMZIN
 70
     0
  9
$DIMBLK
  1

  9
$DIMASO
 70
     1
  9
$DIMSHO
 70
     1
  9
$DIMPOST
  1

  9
$DIMAPOST
  1

  9
$DIMALT
 70
     0
  9
$DIMALTD
 70
     2
  9
$DIMALTF
 40
25.4
  9
$DIMLFAC
 40
1.0
  9
$DIMTOFL
 70
     0
  9
$DIMTVP
 40
0.0
  9
$DIMTIX
 70
     0
  9
$DIMSOXD
 70
     0
  9
$DIMSAH
 70
     0
  9
$DIMBLK1
  1

  9
$DIMBLK2
  1

  9
$DIMSTYLE
  2
STANDARD
  9
$DIMCLRD
 70
     0
  9
$DIMCLRE
 70
     0
  9
$DIMCLRT
 70
     0
  9
$DIMTFAC
 40
1.0
  9
$DIMGAP
 40
0.09
  9
$DIMJUST
 70
     0
  9
$DIMSD1
 70
     0
  9
$DIMSD2
 70
     0
  9
$DIMTOLJ
 70
     1
  9
$DIMTZIN
 70
     0
  9
$DIMALTZ
 70
     0
  9
$DIMALTTZ
 70
     0
  9
$DIMFIT
 70
     3
  9
$DIMUPT
 70
     0
  9
$DIMUNIT
 70
     2
  9
$DIMDEC
 70
     4
  9
$DIMTDEC
 70
     4
  9
$DIMALTU
 70
     2
  9
$DIMALTTD
 70
     2
  9
$DIMTXSTY
  7
STANDARD
  9
$DIMAUNIT
 70
     0
  9
$LUNITS
 70
     2
  9
$LUPREC
 70
     4
  9
$SKETCHINC
 40
0.1
  9
$FILLETRAD
 40
0.0
  9
$AUNITS
 70
     0
  9
$AUPREC
 70
     0
  9
$MENU
  1
.
  9
$ELEVATION
 40
0.0
  9
$PELEVATION
 40
0.0
  9
$THICKNESS
 40
0.0
  9
$LIMCHECK
 70
     0
  9
$CHAMFERA
 40
0.0
  9
$CHAMFERB
 40
0.0
  9
$CHAMFERC
 40
0.0
  9
$CHAMFERD
 40
0.0
  9
$SKPOLY
 70
     0
  9
$TDCREATE
 40
2460054.520376666
  9
$TDUPDATE
 40
2460054.520376794
  9
$TDINDWG
 40
0.0000000116
  9
$TDUSRTIMER
 40
0.0000000116
  9
$USRTIMER
 70
     1
  9
$ANGBASE
 50
0.0
  9
$ANGDIR
 70
     0
  9
$PDMODE
 70
     0
  9
$PDSIZE
 40
0.0
  9
$PLINEWID
 40
0.0
  9
$COORDS
 70
     1
  9
$SPLFRAME
 70
     0
  9
$SPLINETYPE
 70
     6
  9
$SPLINESEGS
 70
     8
  9
$ATTDIA
 70
     0
  9
$ATTREQ
 70
     1
  9
$HANDLING
 70
     1
  9
$HANDSEED
  5
248
  9
$SURFTAB1
 70
     6
  9
$SURFTAB2
 70
     6
  9
$SURFTYPE
 70
     6
  9
$SURFU
 70
     6
  9
$SURFV
 70
     6
  9
$UCSNAME
  2

  9
$UCSORG
 10
0.0
 20
0.0
 30
0.0
  9
$UCSXDIR
 10
1.0
 20
0.0
 30
0.0
  9
$UCSYDIR
 10
0.0
 20
1.0
 30
0.0
  9
$PUCSNAME
  2

  9
$PUCSORG
 10
0.0
 20
0.0
 30
0.0
  9
$PUCSXDIR
 10
1.0
 20
0.0
 30
0.0
  9
$PUCSYDIR
 10
0.0
 20
1.0
 30
0.0
  9
$USERI1
 70
     0
  9
$USERI2
 70
     0
  9
$USERI3
 70
     0
  9
$USERI4
 70
     0
  9
$USERI5
 70
     0
  9
$USERR1
 40
0.0
  9
$USERR2
 40
0.0
  9
$USERR3
 40
0.0
  9
$USERR4
 40
0.0
  9
$USERR5
 40
0.0
  9
$WORLDVIEW
 70
     1
  9
$SHADEDGE
 70
     3
  9
$SHADEDIF
 70
    70
  9
$TILEMODE
 70
     1
  9
$MAXACTVP
 70
    64
  9
$PINSBASE
 10
0.0
 20
0.0
 30
0.0
  9
$PLIMCHECK
 70
     0
  9
$PEXTMIN
 10
1.000000000000000E+20
 20
1.000000000000000E+20
 30
1.000000000000000E+20
  9
$PEXTMAX
 10
-1.000000000000000E+20
 20
-1.000000000000000E+20
 30
-1.000000000000000E+20
  9
$PLIMMIN
 10
0.0
 20
0.0
  9
$PLIMMAX
 10
12.0
 20
9.0
  9
$UNITMODE
 70
     0
  9
$VISRETAIN
 70
     1
  9
$PLINEGEN
 70
     0
  9
$PSLTSCALE
 70
     1
  9
$TREEDEPTH
 70
  3020
  9
$PICKSTYLE
 70
     1
  9
$CMLSTYLE
  2
STANDARD
  9
$CMLJUST
 70
     0
  9
$CMLSCALE
 40
1.0
  9
$PROXYGRAPHICS
 70
     1
  9
$MEASUREMENT
 70
     0
  0
ENDSEC
  0
SECTION
  2
CLASSES
  0
CLASS
  1
ACDBDICTIONARYWDFLT
  2
AcDbDictionaryWithDefault
  3
ObjectDBX Classes
 90
        0
280
     0
281
     0
  0
CLASS
  1
VISUALSTYLE
  2
AcDbVisualStyle
  3
ObjectDBX Classes
 90
     4095
280
     0
281
     0
  0
CLASS
  1
MATERIAL
  2
AcDbMaterial
  3
ObjectDBX Classes
 90
     1153
280
     0
281
     0
  0
CLASS
  1
SCALE
  2
AcDbScale
  3
ObjectDBX Classes
 90
     1153
280
     0
281
     0
  0
CLASS
  1
TABLESTYLE
  2
AcDbTableStyle
  3
ObjectDBX Classes
 90
     4095
280
     0
281
     0
  0
CLASS
  1
MLEADERSTYLE
  2
AcDbMLeaderStyle
  3
ACDB_MLEADERSTYLE_CLASS
 90
     4095
280
     0
281
     0
  0
CLASS
  1
SUN
  2
AcDbSun
  3
SCENEOE
 90
     1153
280
     0
281
     0
  0
CLASS
  1
DICTIONARYVAR
  2
AcDbDictionaryVar
  3
ObjectDBX Classes
 90
        0
280
     0
281
     0
  0
CLASS
  1
XRECORD
  2
AcDbXrecord
  3
ObjectDBX Classes
 90
        0
280
     0
281
     0
  0
CLASS
  1
LWPOLYLINE
  2
AcDbPolyline
  3
ObjectDBX Classes
 90
        0
280
     0
281
     1
  0
CLASS
  1
HATCH
  2
AcDbHatch
  3
ObjectDBX Classes
 90
        0
280
     0
281
     1
  0
CLASS
  1
ACDBPLACEHOLDER
  2
AcDbPlaceHolder
  3
ObjectDBX Classes
 90
        0
280
     0
281
     0
  0
CLASS
  1
LAYOUT
  2
AcDbLayout
  3
ObjectDBX Classes
 90
        0
280
     0
281
     0
  0
ENDSEC
  0
SECTION
  2
TABLES
  0
TABLE
  2
VPORT
  5
8
102
{ACAD_XDICTIONARY
360
23D
102
}
330
0
100
AcDbSymbolTable
 70
     1
  0
VPORT
  5
29
330
8
100
AcDbSymbolTableRecord
100
AcDbViewportTableRecord
  2
*ACTIVE
 70
     0
 10
0.0
 20
0.0
 11
1.0
 21
1.0
 12
0.0
 22
0.0
 13
0.0
 23
0.0
 14
0.5
 24
0.5
 15
0.5
 25
0.5
 16
0.0
 26
0.0
 36
1.0
 17
0.0
 27
0.0
 37
-1000.0
 40
56.38497054339456
 41
2.46015625
 42
50.0
 43
86.7130672566166
 44
101.2130672566257
 50
0.0
 51
0.0
 71
     0
 72
   100
 73
     1
 74
     3
 75
     0
 76
     0
 77
     0
 78
     0
  0
ENDTAB
  0
TABLE
  2
LTYPE
  5
5
330
0
100
AcDbSymbolTable
 70
     1
  0
LTYPE
  5
14
330
5
100
AcDbSymbolTableRecord
100
AcDbLinetypeTableRecord
  2
BYBLOCK
 70
     0
  3

 72
    65
 73
     0
 40
0.0
  0
LTYPE
  5
15
330
5
100
AcDbSymbolTableRecord
100
AcDbLinetypeTableRecord
  2
BYLAYER
 70
     0
  3

 72
    65
 73
     0
 40
0.0
  0
LTYPE
  5
16
330
5
100
AcDbSymbolTableRecord
100
AcDbLinetypeTableRecord
  2
CONTINUOUS
 70
     0
  3
Solid line
 72
    65
 73
     0
 40
0.0
  0
ENDTAB
  0
TABLE
  2
LAYER
  5
2
330
0
100
AcDbSymbolTable
 70
     3
  0
LAYER
  5
10
330
2
100
AcDbSymbolTableRecord
100
AcDbLayerTableRecord
  2
0
 70
     0
 62
     7
  6
CONTINUOUS
  0
LAYER
  5
5E
330
2
100
AcDbSymbolTableRecord
100
AcDbLayerTableRecord
  2
PROFILEEDGES
 70
     0
 62
     7
  6
CONTINUOUS
  0
LAYER
  5
5F
330
2
100
AcDbSymbolTableRecord
100
AcDbLayerTableRecord
  2
SECTIONCUTEDGES
 70
     0
 62
     7
  6
CONTINUOUS
  0
ENDTAB
  0
TABLE
  2
STYLE
  5
3
330
0
100
AcDbSymbolTable
 70
     1
  0
STYLE
  5
11
330
3
100
AcDbSymbolTableRecord
100
AcDbTextStyleTableRecord
  2
STANDARD
 70
     0
 40
0.0
 41
1.0
 50
0.0
 71
     0
 42
0.2
  3
txt
  4

  0
ENDTAB
  0
TABLE
  2
VIEW
  5
6
330
0
100
AcDbSymbolTable
 70
     0
  0
ENDTAB
  0
TABLE
  2
UCS
  5
7
330
0
100
AcDbSymbolTable
 70
     0
  0
ENDTAB
  0
TABLE
  2
APPID
  5
9
330
0
100
AcDbSymbolTable
 70
     2
  0
APPID
  5
12
330
9
100
AcDbSymbolTableRecord
100
AcDbRegAppTableRecord
  2
ACAD
 70
     0
  0
APPID
  5
247
330
9
100
AcDbSymbolTableRecord
100
AcDbRegAppTableRecord
  2
ACAD_MLEADERVER
 70
     0
  0
ENDTAB
  0
TABLE
  2
DIMSTYLE
  5
A
330
0
100
AcDbSymbolTable
 70
     1
  0
DIMSTYLE
105
27
330
A
100
AcDbSymbolTableRecord
100
AcDbDimStyleTableRecord
  2
STANDARD
 70
     0
  3

  4

  5

  6

  7

 40
1.0
 41
0.18
 42
0.0625
 43
0.38
 44
0.18
 45
0.0
 46
0.0
 47
0.0
 48
0.0
140
0.18
141
0.09
142
0.0
143
25.4
144
1.0
145
0.0
146
1.0
147
0.09
 71
     0
 72
     0
 73
     1
 74
     1
 75
     0
 76
     0
 77
     0
 78
     0
170
     0
171
     2
172
     0
173
     0
174
     0
175
     0
176
     0
177
     0
178
     0
270
     2
271
     4
272
     4
273
     2
274
     2
340
11
275
     0
280
     0
281
     0
282
     0
283
     1
284
     0
285
     0
286
     0
287
     3
288
     0
  0
ENDTAB
  0
TABLE
  2
BLOCK_RECORD
  5
1
330
0
100
AcDbSymbolTable
 70
     0
  0
BLOCK_RECORD
  5
1F
330
1
100
AcDbSymbolTableRecord
100
AcDbBlockTableRecord
  2
*MODEL_SPACE
  0
BLOCK_RECORD
  5
1B
330
1
100
AcDbSymbolTableRecord
100
AcDbBlockTableRecord
  2
*PAPER_SPACE
  0
ENDTAB
  0
ENDSEC
  0
SECTION
  2
BLOCKS
  0
BLOCK
  5
20
330
1F
100
AcDbEntity
  8
0
100
AcDbBlockBegin
  2
*MODEL_SPACE
 70
     0
 10
0.0
 20
0.0
 30
0.0
  3
*MODEL_SPACE
  1

  0
ENDBLK
  5
21
330
1F
100
AcDbEntity
  8
0
100
AcDbBlockEnd
  0
BLOCK
  5
1C
330
1B
100
AcDbEntity
 67
     1
  8
0
100
AcDbBlockBegin
  2
*PAPER_SPACE
 70
     0
 10
0.0
 20
0.0
 30
0.0
  3
*PAPER_SPACE
  1

  0
ENDBLK
  5
1D
330
1B
100
AcDbEntity
 67
     1
  8
0
100
AcDbBlockEnd
  0
ENDSEC
  0
SECTION
  2
ENTITIES
  0
LINE
  5
60
330
1F
100
AcDbEntity
  8
0
100
AcDbLine
 10
-23.29878872884693
 20
-13.9294076350125
 30
0.0
 11
-12.03628872884693
 21
-13.9294076350125
 31
0.0
  0
LINE
  5
61
330
1F
100
AcDbEntity
  8
0
100
AcDbLine
 10
-23.29878872884693
 20
-6.079407635012512
 30
0.0
 11
-12.03628872884693
 21
-6.079407635012512
 31
0.0
  0
LINE
  5
62
330
1F
100
AcDbEntity
  8
0
100
AcDbLine
 10
-23.29878872884693
 20
-6.079407635012512
 30
0.0
 11
-23.29878872884693
 21
-12.21065763501251
 31
0.0
  0
LINE
  5
63
330
1F
100
AcDbEntity
  8
0
100
AcDbLine
 10
-12.03628872884693
 20
-6.079407635012512
 30
0.0
 11
-12.03628872884693
 21
-12.21065763501251
 31
0.0
  0
LINE
  5
64
330
1F
100
AcDbEntity
  8
0
100
AcDbLine
 10
-12.03628872884693
 20
-12.21065763501251
 30
0.0
 11
-12.03628872884693
 21
-12.92940763501251
 31
0.0
  0
LINE
  5
65
330
1F
100
AcDbEntity
  8
0
100
AcDbLine
 10
-12.03628872884693
 20
-12.92940763501251
 30
0.0
 11
-12.03628872884693
 21
-13.9294076350125
 31
0.0
  0
LINE
  5
66
330
1F
100
AcDbEntity
  8
0
100
AcDbLine
 10
-23.29878872884693
 20
-12.21065763501251
 30
0.0
 11
-23.29878872884693
 21
-12.92940763501251
 31
0.0
  0
LINE
  5
67
330
1F
100
AcDbEntity
  8
0
100
AcDbLine
 10
-12.03628872884693
 20
-12.92940763501251
 30
0.0
 11
-23.29878872884693
 21
-12.92940763501251
 31
0.0
  0
LINE
  5
68
330
1F
100
AcDbEntity
  8
0
100
AcDbLine
 10
-12.03628872884693
 20
-12.21065763501251
 30
0.0
 11
-23.29878872884693
 21
-12.21065763501251
 31
0.0
  0
LINE
  5
69
330
1F
100
AcDbEntity
  8
0
100
AcDbLine
 10
-23.29878872884693
 20
-12.92940763501251
 30
0.0
 11
-23.29878872884693
 21
-13.9294076350125
 31
0.0
  0
LINE
  5
6A
330
1F
100
AcDbEntity
  8
0
100
AcDbLine
 10
-22.79878872884585
 20
15.41571869675839
 30
0.0
 11
-17.29878872884585
 21
15.41571869675789
 31
0.0
  0
LINE
  5
6B
330
1F
100
AcDbEntity
  8
0
100
AcDbLine
 10
-17.29878872884585
 20
15.41571869675789
 30
0.0
 11
-17.29878872884644
 21
8.915718696757894
 31
0.0
  0
LINE
  5
6C
330
1F
100
AcDbEntity
  8
0
100
AcDbLine
 10
-17.29878872884644
 20
8.915718696757894
 30
0.0
 11
-15.08003872884868
 21
8.915718696757693
 31
0.0
  0
LINE
  5
6D
330
1F
100
AcDbEntity
  8
0
100
AcDbLine
 10
-18.01753872884659
 20
7.196968696757956
 30
0.0
 11
-18.01753872884592
 21
14.67423769675796
 31
0.0
  0
LINE
  5
6E
330
1F
100
AcDbEntity
  8
0
100
AcDbLine
 10
-18.01753872884592
 20
14.67423769675796
 30
0.0
 11
-22.79878872884592
 21
14.69696869675839
 31
0.0
  0
LINE
  5
6F
330
1F
100
AcDbEntity
  8
0
100
AcDbLine
 10
-22.79878872884592
 20
14.69696869675839
 30
0.0
 11
-22.79878872884585
 21
15.41571869675839
 31
0.0
  0
LINE
  5
70
330
1F
100
AcDbEntity
  8
0
100
AcDbLine
 10
-21.29878872884689
 20
3.415718696758252
 30
0.0
 11
-21.28167845159448
 21
3.676771081198352
 31
0.0
  0
LINE
  5
71
330
1F
100
AcDbEntity
  8
0
100
AcDbLine
 10
-21.28167845159448
 20
3.676771081198352
 30
0.0
 11
-21.23064038142498
 21
3.93335678696328
 31
0.0
  0
LINE
  5
72
330
1F
100
AcDbEntity
  8
0
100
AcDbLine
 10
-21.23064038142498
 20
3.93335678696328
 30
0.0
 11
-21.14654779386939
 21
4.181085561488405
 31
0.0
  0
LINE
  5
73
330
1F
100
AcDbEntity
  8
0
100
AcDbLine
 10
-21.14654779386939
 20
4.181085561488405
 30
0.0
 11
-21.03083953641568
 21
4.415718696758212
 31
0.0
  0
LINE
  5
74
330
1F
100
AcDbEntity
  8
0
100
AcDbLine
 10
-21.03083953641568
 20
4.415718696758212
 30
0.0
 11
-20.88549540942926
 21
4.633241554775637
 31
0.0
  0
LINE
  5
75
330
1F
100
AcDbEntity
  8
0
100
AcDbLine
 10
-20.88549540942926
 20
4.633241554775637
 30
0.0
 11
-20.71300229121987
 21
4.829932259131274
 31
0.0
  0
LINE
  5
76
330
1F
100
AcDbEntity
  8
0
100
AcDbLine
 10
-20.71300229121987
 20
4.829932259131274
 30
0.0
 11
-20.51631158686421
 21
5.002425377340631
 31
0.0
  0
LINE
  5
77
330
1F
100
AcDbEntity
  8
0
100
AcDbLine
 10
-20.51631158686421
 20
5.002425377340631
 30
0.0
 11
-20.29878872884676
 21
5.147769504327021
 31
0.0
  0
LINE
  5
78
330
1F
100
AcDbEntity
  8
0
100
AcDbLine
 10
-20.29878872884676
 20
5.147769504327021
 30
0.0
 11
-20.06415559357693
 21
5.263477761780699
 31
0.0
  0
LINE
  5
79
330
1F
100
AcDbEntity
  8
0
100
AcDbLine
 10
-20.06415559357693
 20
5.263477761780699
 30
0.0
 11
-19.81642681905179
 21
5.347570349336243
 31
0.0
  0
LINE
  5
7A
330
1F
100
AcDbEntity
  8
0
100
AcDbLine
 10
-19.81642681905179
 20
5.347570349336243
 30
0.0
 11
-19.55984111328685
 21
5.39860841950571
 31
0.0
  0
LINE
  5
7B
330
1F
100
AcDbEntity
  8
0
100
AcDbLine
 10
-19.55984111328685
 20
5.39860841950571
 30
0.0
 11
-19.29878872884675
 21
5.415718696758071
 31
0.0
  0
LINE
  5
7C
330
1F
100
AcDbEntity
  8
0
100
AcDbLine
 10
-19.29878872884675
 20
5.415718696758071
 30
0.0
 11
-18.580038728849
 21
5.41571869675801
 31
0.0
  0
LINE
  5
7D
330
1F
100
AcDbEntity
  8
0
100
AcDbLine
 10
-23.29878872884693
 20
2.915718696758432
 30
0.0
 11
-23.29451115953384
 21
2.850455600648405
 31
0.0
  0
LINE
  5
7E
330
1F
100
AcDbEntity
  8
0
100
AcDbLine
 10
-23.29451115953384
 20
2.850455600648405
 30
0.0
 11
-23.28175164199148
 21
2.78630917420717
 31
0.0
  0
LINE
  5
7F
330
1F
100
AcDbEntity
  8
0
100
AcDbLine
 10
-23.28175164199148
 20
2.78630917420717
 30
0.0
 11
-23.26072849510259
 21
2.724376980575884
 31
0.0
  0
LINE
  5
80
330
1F
100
AcDbEntity
  8
0
100
AcDbLine
 10
-23.26072849510259
 20
2.724376980575884
 30
0.0
 11
-23.23180143073917
 21
2.665718696758426
 31
0.0
  0
LINE
  5
81
330
1F
100
AcDbEntity
  8
0
100
AcDbLine
 10
-23.23180143073917
 20
2.665718696758426
 30
0.0
 11
-23.19546539899257
 21
2.611337982254062
 31
0.0
  0
LINE
  5
82
330
1F
100
AcDbEntity
  8
0
100
AcDbLine
 10
-23.19546539899257
 20
2.611337982254062
 30
0.0
 11
-23.15234211944023
 21
2.562165306165145
 31
0.0
  0
LINE
  5
83
330
1F
100
AcDbEntity
  8
0
100
AcDbLine
 10
-23.15234211944023
 20
2.562165306165145
 30
0.0
 11
-23.10316944335133
 21
2.519042026612797
 31
0.0
  0
LINE
  5
84
330
1F
100
AcDbEntity
  8
0
100
AcDbLine
 10
-23.10316944335133
 20
2.519042026612797
 30
0.0
 11
-23.04878872884697
 21
2.48270599486619
 31
0.0
  0
LINE
  5
85
330
1F
100
AcDbEntity
  8
0
100
AcDbLine
 10
-23.04878872884697
 20
2.48270599486619
 30
0.0
 11
-22.99013044502951
 21
2.453778930502761
 31
0.0
  0
LINE
  5
86
330
1F
100
AcDbEntity
  8
0
100
AcDbLine
 10
-22.99013044502951
 20
2.453778930502761
 30
0.0
 11
-22.92819825139823
 21
2.432755783613864
 31
0.0
  0
LINE
  5
87
330
1F
100
AcDbEntity
  8
0
100
AcDbLine
 10
-22.92819825139823
 20
2.432755783613864
 30
0.0
 11
-22.864051824957
 21
2.419996266071488
 31
0.0
  0
LINE
  5
88
330
1F
100
AcDbEntity
  8
0
100
AcDbLine
 10
-22.864051824957
 20
2.419996266071488
 30
0.0
 11
-22.79878872884697
 21
2.415718696758387
 31
0.0
  0
LINE
  5
89
330
1F
100
AcDbEntity
  8
0
100
AcDbLine
 10
-22.79878872884697
 20
2.415718696758387
 30
0.0
 11
-21.79878872884697
 21
2.415718696758297
 31
0.0
  0
LINE
  5
8A
330
1F
100
AcDbEntity
  8
0
100
AcDbLine
 10
-21.79878872884697
 20
2.415718696758297
 30
0.0
 11
-21.73352563273695
 21
2.419996266071387
 31
0.0
  0
LINE
  5
8B
330
1F
100
AcDbEntity
  8
0
100
AcDbLine
 10
-21.73352563273695
 20
2.419996266071387
 30
0.0
 11
-21.66937920629571
 21
2.432755783613752
 31
0.0
  0
LINE
  5
8C
330
1F
100
AcDbEntity
  8
0
100
AcDbLine
 10
-21.66937920629571
 20
2.432755783613752
 30
0.0
 11
-21.60744701266442
 21
2.453778930502637
 31
0.0
  0
LINE
  5
8D
330
1F
100
AcDbEntity
  8
0
100
AcDbLine
 10
-21.60744701266442
 20
2.453778930502637
 30
0.0
 11
-21.54878872884697
 21
2.482705994866055
 31
0.0
  0
LINE
  5
8E
330
1F
100
AcDbEntity
  8
0
100
AcDbLine
 10
-21.54878872884697
 20
2.482705994866055
 30
0.0
 11
-21.4944080143426
 21
2.519042026612652
 31
0.0
  0
LINE
  5
8F
330
1F
100
AcDbEntity
  8
0
100
AcDbLine
 10
-21.4944080143426
 20
2.519042026612652
 30
0.0
 11
-21.44523533825369
 21
2.562165306164992
 31
0.0
  0
LINE
  5
90
330
1F
100
AcDbEntity
  8
0
100
AcDbLine
 10
-21.44523533825369
 20
2.562165306164992
 30
0.0
 11
-21.40211205870134
 21
2.611337982253902
 31
0.0
  0
LINE
  5
91
330
1F
100
AcDbEntity
  8
0
100
AcDbLine
 10
-21.40211205870134
 20
2.611337982253902
 30
0.0
 11
-21.36577602695473
 21
2.665718696758259
 31
0.0
  0
LINE
  5
92
330
1F
100
AcDbEntity
  8
0
100
AcDbLine
 10
-21.36577602695473
 20
2.665718696758259
 30
0.0
 11
-21.3368489625913
 21
2.724376980575711
 31
0.0
  0
LINE
  5
93
330
1F
100
AcDbEntity
  8
0
100
AcDbLine
 10
-21.3368489625913
 20
2.724376980575711
 30
0.0
 11
-21.31582581570241
 21
2.786309174206994
 31
0.0
  0
LINE
  5
94
330
1F
100
AcDbEntity
  8
0
100
AcDbLine
 10
-21.31582581570241
 20
2.786309174206994
 30
0.0
 11
-21.30306629816003
 21
2.850455600648227
 31
0.0
  0
LINE
  5
95
330
1F
100
AcDbEntity
  8
0
100
AcDbLine
 10
-21.30306629816003
 20
2.850455600648227
 30
0.0
 11
-21.29878872884693
 21
2.915718696758252
 31
0.0
  0
LINE
  5
96
330
1F
100
AcDbEntity
  8
0
100
AcDbLine
 10
-21.29878872884693
 20
2.915718696758252
 30
0.0
 11
-21.29878872884689
 21
3.415718696758252
 31
0.0
  0
LINE
  5
97
330
1F
100
AcDbEntity
  8
0
100
AcDbLine
 10
-17.29878872884581
 20
15.91571869675789
 30
0.0
 11
-17.23352563273578
 21
15.91144112744479
 31
0.0
  0
LINE
  5
98
330
1F
100
AcDbEntity
  8
0
100
AcDbLine
 10
-17.23352563273578
 20
15.91144112744479
 30
0.0
 11
-17.16937920629455
 21
15.89868160990242
 31
0.0
  0
LINE
  5
99
330
1F
100
AcDbEntity
  8
0
100
AcDbLine
 10
-17.16937920629455
 20
15.89868160990242
 30
0.0
 11
-17.10744701266326
 21
15.87765846301352
 31
0.0
  0
LINE
  5
9A
330
1F
100
AcDbEntity
  8
0
100
AcDbLine
 10
-17.10744701266326
 20
15.87765846301352
 30
0.0
 11
-17.04878872884581
 21
15.84873139865009
 31
0.0
  0
LINE
  5
9B
330
1F
100
AcDbEntity
  8
0
100
AcDbLine
 10
-17.04878872884581
 20
15.84873139865009
 30
0.0
 11
-16.99440801434146
 21
15.81239536690349
 31
0.0
  0
LINE
  5
9C
330
1F
100
AcDbEntity
  8
0
100
AcDbLine
 10
-16.99440801434146
 20
15.81239536690349
 30
0.0
 11
-16.94523533825255
 21
15.76927208735114
 31
0.0
  0
LINE
  5
9D
330
1F
100
AcDbEntity
  8
0
100
AcDbLine
 10
-16.94523533825255
 20
15.76927208735114
 30
0.0
 11
-16.90211205870021
 21
15.72009941126222
 31
0.0
  0
LINE
  5
9E
330
1F
100
AcDbEntity
  8
0
100
AcDbLine
 10
-16.90211205870021
 20
15.72009941126222
 30
0.0
 11
-16.86577602695361
 21
15.66571869675785
 31
0.0
  0
LINE
  5
9F
330
1F
100
AcDbEntity
  8
0
100
AcDbLine
 10
-16.86577602695361
 20
15.66571869675785
 30
0.0
 11
-16.83684896259019
 21
15.6070604129404
 31
0.0
  0
LINE
  5
A0
330
1F
100
AcDbEntity
  8
0
100
AcDbLine
 10
-16.83684896259019
 20
15.6070604129404
 30
0.0
 11
-16.81582581570131
 21
15.54512821930911
 31
0.0
  0
LINE
  5
A1
330
1F
100
AcDbEntity
  8
0
100
AcDbLine
 10
-16.81582581570131
 20
15.54512821930911
 30
0.0
 11
-16.80306629815894
 21
15.48098179286788
 31
0.0
  0
LINE
  5
A2
330
1F
100
AcDbEntity
  8
0
100
AcDbLine
 10
-16.80306629815894
 20
15.48098179286788
 30
0.0
 11
-16.79878872884585
 21
15.41571869675785
 31
0.0
  0
LINE
  5
A3
330
1F
100
AcDbEntity
  8
0
100
AcDbLine
 10
-17.29878872884581
 20
15.91571869675789
 30
0.0
 11
-22.79878872884581
 21
15.91571869675839
 31
0.0
  0
LINE
  5
A4
330
1F
100
AcDbEntity
  8
0
100
AcDbLine
 10
-23.29878872884585
 20
15.41571869675843
 30
0.0
 11
-23.29451115953275
 21
15.48098179286846
 31
0.0
  0
LINE
  5
A5
330
1F
100
AcDbEntity
  8
0
100
AcDbLine
 10
-23.29451115953275
 20
15.48098179286846
 30
0.0
 11
-23.28175164199038
 21
15.54512821930969
 31
0.0
  0
LINE
  5
A6
330
1F
100
AcDbEntity
  8
0
100
AcDbLine
 10
-23.28175164199038
 20
15.54512821930969
 30
0.0
 11
-23.26072849510148
 21
15.60706041294097
 31
0.0
  0
LINE
  5
A7
330
1F
100
AcDbEntity
  8
0
100
AcDbLine
 10
-23.26072849510148
 20
15.60706041294097
 30
0.0
 11
-23.23180143073805
 21
15.66571869675843
 31
0.0
  0
LINE
  5
A8
330
1F
100
AcDbEntity
  8
0
100
AcDbLine
 10
-23.23180143073805
 20
15.66571869675843
 30
0.0
 11
-23.19546539899144
 21
15.72009941126278
 31
0.0
  0
LINE
  5
A9
330
1F
100
AcDbEntity
  8
0
100
AcDbLine
 10
-23.19546539899144
 20
15.72009941126278
 30
0.0
 11
-23.15234211943909
 21
15.76927208735169
 31
0.0
  0
LINE
  5
AA
330
1F
100
AcDbEntity
  8
0
100
AcDbLine
 10
-23.15234211943909
 20
15.76927208735169
 30
0.0
 11
-23.10316944335018
 21
15.81239536690403
 31
0.0
  0
LINE
  5
AB
330
1F
100
AcDbEntity
  8
0
100
AcDbLine
 10
-23.10316944335018
 20
15.81239536690403
 30
0.0
 11
-23.04878872884581
 21
15.84873139865063
 31
0.0
  0
LINE
  5
AC
330
1F
100
AcDbEntity
  8
0
100
AcDbLine
 10
-23.04878872884581
 20
15.84873139865063
 30
0.0
 11
-22.99013044502836
 21
15.87765846301405
 31
0.0
  0
LINE
  5
AD
330
1F
100
AcDbEntity
  8
0
100
AcDbLine
 10
-22.99013044502836
 20
15.87765846301405
 30
0.0
 11
-22.92819825139707
 21
15.89868160990293
 31
0.0
  0
LINE
  5
AE
330
1F
100
AcDbEntity
  8
0
100
AcDbLine
 10
-22.92819825139707
 20
15.89868160990293
 30
0.0
 11
-22.86405182495583
 21
15.9114411274453
 31
0.0
  0
LINE
  5
AF
330
1F
100
AcDbEntity
  8
0
100
AcDbLine
 10
-22.86405182495583
 20
15.9114411274453
 30
0.0
 11
-22.79878872884581
 21
15.91571869675839
 31
0.0
  0
LINE
  5
B0
330
1F
100
AcDbEntity
  8
0
100
AcDbLine
 10
-23.29878872884693
 20
2.915718696758432
 30
0.0
 11
-23.29878872884585
 21
15.41571869675843
 31
0.0
  0
LINE
  5
B1
330
1F
100
AcDbEntity
  8
0
100
AcDbLine
 10
-21.29878872884592
 20
14.1821201272376
 30
0.0
 11
-18.79878872884596
 21
14.18212012723738
 31
0.0
  0
LINE
  5
B2
330
1F
100
AcDbEntity
  8
0
100
AcDbLine
 10
-18.79878872884605
 20
13.18212012723738
 30
0.0
 11
-21.29878872884601
 21
13.1821201272376
 31
0.0
  0
LINE
  5
B3
330
1F
100
AcDbEntity
  8
0
100
AcDbLine
 10
-18.79878872884596
 20
14.18212012723738
 30
0.0
 11
-18.66937920629471
 21
14.16508304038191
 31
0.0
  0
LINE
  5
B4
330
1F
100
AcDbEntity
  8
0
100
AcDbLine
 10
-18.66937920629471
 20
14.16508304038191
 30
0.0
 11
-18.54878872884596
 21
14.11513282912959
 31
0.0
  0
LINE
  5
B5
330
1F
100
AcDbEntity
  8
0
100
AcDbLine
 10
-18.54878872884596
 20
14.11513282912959
 30
0.0
 11
-18.44523533825269
 21
14.03567351783064
 31
0.0
  0
LINE
  5
B6
330
1F
100
AcDbEntity
  8
0
100
AcDbLine
 10
-18.44523533825269
 20
14.03567351783064
 30
0.0
 11
-18.36577602695374
 21
13.93212012723736
 31
0.0
  0
LINE
  5
B7
330
1F
100
AcDbEntity
  8
0
100
AcDbLine
 10
-18.36577602695374
 20
13.93212012723736
 30
0.0
 11
-18.31582581570142
 21
13.81152964978861
 31
0.0
  0
LINE
  5
B8
330
1F
100
AcDbEntity
  8
0
100
AcDbLine
 10
-18.31582581570142
 20
13.81152964978861
 30
0.0
 11
-18.29878872884596
 21
13.68212012723734
 31
0.0
  0
LINE
  5
B9
330
1F
100
AcDbEntity
  8
0
100
AcDbLine
 10
-18.29878872884596
 20
13.68212012723734
 30
0.0
 11
-18.31582581570144
 21
13.55271060468607
 31
0.0
  0
LINE
  5
BA
330
1F
100
AcDbEntity
  8
0
100
AcDbLine
 10
-18.31582581570144
 20
13.55271060468607
 30
0.0
 11
-18.36577602695377
 21
13.43212012723734
 31
0.0
  0
LINE
  5
BB
330
1F
100
AcDbEntity
  8
0
100
AcDbLine
 10
-18.36577602695377
 20
13.43212012723734
 30
0.0
 11
-18.44523533825272
 21
13.32856673664407
 31
0.0
  0
LINE
  5
BC
330
1F
100
AcDbEntity
  8
0
100
AcDbLine
 10
-18.44523533825272
 20
13.32856673664407
 30
0.0
 11
-18.54878872884601
 21
13.24910742534514
 31
0.0
  0
LINE
  5
BD
330
1F
100
AcDbEntity
  8
0
100
AcDbLine
 10
-18.54878872884601
 20
13.24910742534514
 30
0.0
 11
-18.66937920629475
 21
13.19915721409283
 31
0.0
  0
LINE
  5
BE
330
1F
100
AcDbEntity
  8
0
100
AcDbLine
 10
-18.66937920629475
 20
13.19915721409283
 30
0.0
 11
-18.79878872884605
 21
13.18212012723738
 31
0.0
  0
LINE
  5
BF
330
1F
100
AcDbEntity
  8
0
100
AcDbLine
 10
-21.29878872884592
 20
14.1821201272376
 30
0.0
 11
-21.42819825139723
 21
14.16508304038215
 31
0.0
  0
LINE
  5
C0
330
1F
100
AcDbEntity
  8
0
100
AcDbLine
 10
-21.42819825139723
 20
14.16508304038215
 30
0.0
 11
-21.54878872884597
 21
14.11513282912984
 31
0.0
  0
LINE
  5
C1
330
1F
100
AcDbEntity
  8
0
100
AcDbLine
 10
-21.54878872884597
 20
14.11513282912984
 30
0.0
 11
-21.65234211943925
 21
14.03567351783091
 31
0.0
  0
LINE
  5
C2
330
1F
100
AcDbEntity
  8
0
100
AcDbLine
 10
-21.65234211943925
 20
14.03567351783091
 30
0.0
 11
-21.7318014307382
 21
13.93212012723764
 31
0.0
  0
LINE
  5
C3
330
1F
100
AcDbEntity
  8
0
100
AcDbLine
 10
-21.7318014307382
 20
13.93212012723764
 30
0.0
 11
-21.78175164199053
 21
13.81152964978891
 31
0.0
  0
LINE
  5
C4
330
1F
100
AcDbEntity
  8
0
100
AcDbLine
 10
-21.78175164199053
 20
13.81152964978891
 30
0.0
 11
-21.79878872884601
 21
13.68212012723765
 31
0.0
  0
LINE
  5
C5
330
1F
100
AcDbEntity
  8
0
100
AcDbLine
 10
-21.79878872884601
 20
13.68212012723765
 30
0.0
 11
-21.78175164199055
 21
13.55271060468639
 31
0.0
  0
LINE
  5
C6
330
1F
100
AcDbEntity
  8
0
100
AcDbLine
 10
-21.78175164199055
 20
13.55271060468639
 30
0.0
 11
-21.73180143073825
 21
13.43212012723764
 31
0.0
  0
LINE
  5
C7
330
1F
100
AcDbEntity
  8
0
100
AcDbLine
 10
-21.73180143073825
 20
13.43212012723764
 30
0.0
 11
-21.65234211943931
 21
13.32856673664436
 31
0.0
  0
LINE
  5
C8
330
1F
100
AcDbEntity
  8
0
100
AcDbLine
 10
-21.65234211943931
 20
13.32856673664436
 30
0.0
 11
-21.54878872884605
 21
13.24910742534541
 31
0.0
  0
LINE
  5
C9
330
1F
100
AcDbEntity
  8
0
100
AcDbLine
 10
-21.54878872884605
 20
13.24910742534541
 30
0.0
 11
-21.42819825139731
 21
13.19915721409308
 31
0.0
  0
LINE
  5
CA
330
1F
100
AcDbEntity
  8
0
100
AcDbLine
 10
-21.42819825139731
 20
13.19915721409308
 30
0.0
 11
-21.29878872884601
 21
13.1821201272376
 31
0.0
  0
LINE
  5
CB
330
1F
100
AcDbEntity
  8
0
100
AcDbLine
 10
-17.29878872884659
 20
7.196968696757891
 30
0.0
 11
-18.01753872884659
 21
7.196968696757956
 31
0.0
  0
LINE
  5
CC
330
1F
100
AcDbEntity
  8
0
100
AcDbLine
 10
-17.29878872884648
 20
8.196968696757894
 30
0.0
 11
-17.29878872884659
 21
7.196968696757891
 31
0.0
  0
LINE
  5
CD
330
1F
100
AcDbEntity
  8
0
100
AcDbLine
 10
-16.29878872884639
 20
9.40493302541066
 30
0.0
 11
-16.36405182495637
 21
9.409210594723756
 31
0.0
  0
LINE
  5
CE
330
1F
100
AcDbEntity
  8
0
100
AcDbLine
 10
-16.36405182495637
 20
9.409210594723756
 30
0.0
 11
-16.42819825139761
 21
9.421970112266134
 31
0.0
  0
LINE
  5
CF
330
1F
100
AcDbEntity
  8
0
100
AcDbLine
 10
-16.42819825139761
 20
9.421970112266134
 30
0.0
 11
-16.49013044502889
 21
9.442993259155031
 31
0.0
  0
LINE
  5
D0
330
1F
100
AcDbEntity
  8
0
100
AcDbLine
 10
-16.49013044502889
 20
9.442993259155031
 30
0.0
 11
-16.54878872884634
 21
9.47192032351846
 31
0.0
  0
LINE
  5
D1
330
1F
100
AcDbEntity
  8
0
100
AcDbLine
 10
-16.54878872884634
 20
9.47192032351846
 30
0.0
 11
-16.6031694433507
 21
9.508256355265067
 31
0.0
  0
LINE
  5
D2
330
1F
100
AcDbEntity
  8
0
100
AcDbLine
 10
-16.6031694433507
 20
9.508256355265067
 30
0.0
 11
-16.65234211943961
 21
9.551379634817415
 31
0.0
  0
LINE
  5
D3
330
1F
100
AcDbEntity
  8
0
100
AcDbLine
 10
-16.65234211943961
 20
9.551379634817415
 30
0.0
 11
-16.69546539899195
 21
9.60055231090633
 31
0.0
  0
LINE
  5
D4
330
1F
100
AcDbEntity
  8
0
100
AcDbLine
 10
-16.69546539899195
 20
9.60055231090633
 30
0.0
 11
-16.73180143073855
 21
9.654933025410696
 31
0.0
  0
LINE
  5
D5
330
1F
100
AcDbEntity
  8
0
100
AcDbLine
 10
-16.73180143073855
 20
9.654933025410696
 30
0.0
 11
-16.76072849510197
 21
9.713591309228153
 31
0.0
  0
LINE
  5
D6
330
1F
100
AcDbEntity
  8
0
100
AcDbLine
 10
-16.76072849510197
 20
9.713591309228153
 30
0.0
 11
-16.78175164199085
 21
9.77552350285944
 31
0.0
  0
LINE
  5
D7
330
1F
100
AcDbEntity
  8
0
100
AcDbLine
 10
-16.78175164199085
 20
9.77552350285944
 30
0.0
 11
-16.79451115953322
 21
9.839669929300676
 31
0.0
  0
LINE
  5
D8
330
1F
100
AcDbEntity
  8
0
100
AcDbLine
 10
-16.79451115953322
 20
9.839669929300676
 30
0.0
 11
-16.7987887288463
 21
9.904933025410703
 31
0.0
  0
LINE
  5
D9
330
1F
100
AcDbEntity
  8
0
100
AcDbLine
 10
-16.7987887288463
 20
9.904933025410703
 30
0.0
 11
-16.79878872884585
 21
15.41571869675785
 31
0.0
  0
LINE
  5
DA
330
1F
100
AcDbEntity
  8
0
100
AcDbLine
 10
-16.29878872884639
 20
9.40493302541066
 30
0.0
 11
-15.08003872884864
 21
9.404933025410546
 31
0.0
  0
LINE
  5
DB
330
1F
100
AcDbEntity
  8
0
100
AcDbLine
 10
-15.08003872884868
 20
8.915718696757693
 30
0.0
 11
-15.080038728849
 21
5.415718696757697
 31
0.0
  0
LINE
  5
DC
330
1F
100
AcDbEntity
  8
0
100
AcDbLine
 10
-16.58003872884914
 20
3.41571869675783
 30
0.0
 11
-16.58003872884918
 21
2.91571869675783
 31
0.0
  0
LINE
  5
DD
330
1F
100
AcDbEntity
  8
0
100
AcDbLine
 10
-16.08003872884922
 20
2.415718696757785
 30
0.0
 11
-15.08003872884923
 21
2.415718696757696
 31
0.0
  0
LINE
  5
DE
330
1F
100
AcDbEntity
  8
0
100
AcDbLine
 10
-15.08003872884923
 20
2.415718696757696
 30
0.0
 11
-15.0147756327392
 21
2.419996266070784
 31
0.0
  0
LINE
  5
DF
330
1F
100
AcDbEntity
  8
0
100
AcDbLine
 10
-15.0147756327392
 20
2.419996266070784
 30
0.0
 11
-14.95062920629796
 21
2.43275578361315
 31
0.0
  0
LINE
  5
E0
330
1F
100
AcDbEntity
  8
0
100
AcDbLine
 10
-14.95062920629796
 20
2.43275578361315
 30
0.0
 11
-14.88869701266668
 21
2.453778930502035
 31
0.0
  0
LINE
  5
E1
330
1F
100
AcDbEntity
  8
0
100
AcDbLine
 10
-14.88869701266668
 20
2.453778930502035
 30
0.0
 11
-14.83003872884922
 21
2.482705994865454
 31
0.0
  0
LINE
  5
E2
330
1F
100
AcDbEntity
  8
0
100
AcDbLine
 10
-14.83003872884922
 20
2.482705994865454
 30
0.0
 11
-14.77565801434486
 21
2.519042026612051
 31
0.0
  0
LINE
  5
E3
330
1F
100
AcDbEntity
  8
0
100
AcDbLine
 10
-14.77565801434486
 20
2.519042026612051
 30
0.0
 11
-14.72648533825594
 21
2.56216530616439
 31
0.0
  0
LINE
  5
E4
330
1F
100
AcDbEntity
  8
0
100
AcDbLine
 10
-14.72648533825594
 20
2.56216530616439
 30
0.0
 11
-14.68336205870359
 21
2.611337982253299
 31
0.0
  0
LINE
  5
E5
330
1F
100
AcDbEntity
  8
0
100
AcDbLine
 10
-14.68336205870359
 20
2.611337982253299
 30
0.0
 11
-14.64702602695698
 21
2.665718696757656
 31
0.0
  0
LINE
  5
E6
330
1F
100
AcDbEntity
  8
0
100
AcDbLine
 10
-14.64702602695698
 20
2.665718696757656
 30
0.0
 11
-14.61809896259356
 21
2.724376980575109
 31
0.0
  0
LINE
  5
E7
330
1F
100
AcDbEntity
  8
0
100
AcDbLine
 10
-14.61809896259356
 20
2.724376980575109
 30
0.0
 11
-14.59707581570466
 21
2.786309174206392
 31
0.0
  0
LINE
  5
E8
330
1F
100
AcDbEntity
  8
0
100
AcDbLine
 10
-14.59707581570466
 20
2.786309174206392
 30
0.0
 11
-14.58431629816228
 21
2.850455600647625
 31
0.0
  0
LINE
  5
E9
330
1F
100
AcDbEntity
  8
0
100
AcDbLine
 10
-14.58431629816228
 20
2.850455600647625
 30
0.0
 11
-14.58003872884918
 21
2.915718696757651
 31
0.0
  0
LINE
  5
EA
330
1F
100
AcDbEntity
  8
0
100
AcDbLine
 10
-18.3189863444089
 20
5.398608419505607
 30
0.0
 11
-18.580038728849
 21
5.41571869675801
 31
0.0
  0
LINE
  5
EB
330
1F
100
AcDbEntity
  8
0
100
AcDbLine
 10
-16.58003872884914
 20
3.41571869675783
 30
0.0
 11
-16.59714900610154
 21
3.676771081197935
 31
0.0
  0
LINE
  5
EC
330
1F
100
AcDbEntity
  8
0
100
AcDbLine
 10
-16.59714900610154
 20
3.676771081197935
 30
0.0
 11
-16.648187076271
 21
3.933356786962877
 31
0.0
  0
LINE
  5
ED
330
1F
100
AcDbEntity
  8
0
100
AcDbLine
 10
-16.648187076271
 20
3.933356786962877
 30
0.0
 11
-16.73227966382654
 21
4.181085561488024
 31
0.0
  0
LINE
  5
EE
330
1F
100
AcDbEntity
  8
0
100
AcDbLine
 10
-16.73227966382654
 20
4.181085561488024
 30
0.0
 11
-16.84798792128021
 21
4.415718696757854
 31
0.0
  0
LINE
  5
EF
330
1F
100
AcDbEntity
  8
0
100
AcDbLine
 10
-16.84798792128021
 20
4.415718696757854
 30
0.0
 11
-16.9933320482666
 21
4.633241554775307
 31
0.0
  0
LINE
  5
F0
330
1F
100
AcDbEntity
  8
0
100
AcDbLine
 10
-16.9933320482666
 20
4.633241554775307
 30
0.0
 11
-17.16582516647596
 21
4.829932259130977
 31
0.0
  0
LINE
  5
F1
330
1F
100
AcDbEntity
  8
0
100
AcDbLine
 10
-17.16582516647596
 20
4.829932259130977
 30
0.0
 11
-17.3625158708316
 21
5.002425377340369
 31
0.0
  0
LINE
  5
F2
330
1F
100
AcDbEntity
  8
0
100
AcDbLine
 10
-17.3625158708316
 20
5.002425377340369
 30
0.0
 11
-17.58003872884903
 21
5.147769504326797
 31
0.0
  0
LINE
  5
F3
330
1F
100
AcDbEntity
  8
0
100
AcDbLine
 10
-17.58003872884903
 20
5.147769504326797
 30
0.0
 11
-17.81467186411884
 21
5.263477761780514
 31
0.0
  0
LINE
  5
F4
330
1F
100
AcDbEntity
  8
0
100
AcDbLine
 10
-17.81467186411884
 20
5.263477761780514
 30
0.0
 11
-18.06240063864396
 21
5.347570349336099
 31
0.0
  0
LINE
  5
F5
330
1F
100
AcDbEntity
  8
0
100
AcDbLine
 10
-18.06240063864396
 20
5.347570349336099
 30
0.0
 11
-18.3189863444089
 21
5.398608419505607
 31
0.0
  0
LINE
  5
F6
330
1F
100
AcDbEntity
  8
0
100
AcDbLine
 10
-16.57576115953614
 20
2.850455600647804
 30
0.0
 11
-16.58003872884918
 21
2.91571869675783
 31
0.0
  0
LINE
  5
F7
330
1F
100
AcDbEntity
  8
0
100
AcDbLine
 10
-16.56300164199377
 20
2.786309174206568
 30
0.0
 11
-16.57576115953614
 21
2.850455600647804
 31
0.0
  0
LINE
  5
F8
330
1F
100
AcDbEntity
  8
0
100
AcDbLine
 10
-16.54197849510489
 20
2.724376980575281
 30
0.0
 11
-16.56300164199377
 21
2.786309174206568
 31
0.0
  0
LINE
  5
F9
330
1F
100
AcDbEntity
  8
0
100
AcDbLine
 10
-16.51305143074147
 20
2.665718696757824
 30
0.0
 11
-16.54197849510489
 21
2.724376980575281
 31
0.0
  0
LINE
  5
FA
330
1F
100
AcDbEntity
  8
0
100
AcDbLine
 10
-16.47671539899487
 20
2.61133798225346
 30
0.0
 11
-16.51305143074147
 21
2.665718696757824
 31
0.0
  0
LINE
  5
FB
330
1F
100
AcDbEntity
  8
0
100
AcDbLine
 10
-16.43359211944253
 20
2.562165306164543
 30
0.0
 11
-16.47671539899487
 21
2.61133798225346
 31
0.0
  0
LINE
  5
FC
330
1F
100
AcDbEntity
  8
0
100
AcDbLine
 10
-16.38441944335362
 20
2.519042026612195
 30
0.0
 11
-16.43359211944253
 21
2.562165306164543
 31
0.0
  0
LINE
  5
FD
330
1F
100
AcDbEntity
  8
0
100
AcDbLine
 10
-16.33003872884926
 20
2.482705994865588
 30
0.0
 11
-16.38441944335362
 21
2.519042026612195
 31
0.0
  0
LINE
  5
FE
330
1F
100
AcDbEntity
  8
0
100
AcDbLine
 10
-16.27138044503181
 20
2.453778930502159
 30
0.0
 11
-16.33003872884926
 21
2.482705994865588
 31
0.0
  0
LINE
  5
FF
330
1F
100
AcDbEntity
  8
0
100
AcDbLine
 10
-16.20944825140053
 20
2.432755783613263
 30
0.0
 11
-16.27138044503181
 21
2.453778930502159
 31
0.0
  0
LINE
  5
100
330
1F
100
AcDbEntity
  8
0
100
AcDbLine
 10
-16.1453018249593
 20
2.419996266070886
 30
0.0
 11
-16.20944825140053
 21
2.432755783613263
 31
0.0
  0
LINE
  5
101
330
1F
100
AcDbEntity
  8
0
100
AcDbLine
 10
-16.08003872884922
 20
2.415718696757785
 30
0.0
 11
-16.1453018249593
 21
2.419996266070886
 31
0.0
  0
LINE
  5
102
330
1F
100
AcDbEntity
  8
0
100
AcDbLine
 10
-14.58003872884865
 20
8.904933025410504
 30
0.0
 11
-14.58431629816173
 21
8.970196121520528
 31
0.0
  0
LINE
  5
103
330
1F
100
AcDbEntity
  8
0
100
AcDbLine
 10
-14.58431629816173
 20
8.970196121520528
 30
0.0
 11
-14.5970758157041
 21
9.034342547961765
 31
0.0
  0
LINE
  5
104
330
1F
100
AcDbEntity
  8
0
100
AcDbLine
 10
-14.5970758157041
 20
9.034342547961765
 30
0.0
 11
-14.61809896259298
 21
9.096274741593051
 31
0.0
  0
LINE
  5
105
330
1F
100
AcDbEntity
  8
0
100
AcDbLine
 10
-14.61809896259298
 20
9.096274741593051
 30
0.0
 11
-14.6470260269564
 21
9.154933025410509
 31
0.0
  0
LINE
  5
106
330
1F
100
AcDbEntity
  8
0
100
AcDbLine
 10
-14.6470260269564
 20
9.154933025410509
 30
0.0
 11
-14.683362058703
 21
9.209313739914872
 31
0.0
  0
LINE
  5
107
330
1F
100
AcDbEntity
  8
0
100
AcDbLine
 10
-14.683362058703
 20
9.209313739914872
 30
0.0
 11
-14.72648533825534
 21
9.258486416003791
 31
0.0
  0
LINE
  5
108
330
1F
100
AcDbEntity
  8
0
100
AcDbLine
 10
-14.72648533825534
 20
9.258486416003791
 30
0.0
 11
-14.77565801434425
 21
9.301609695556138
 31
0.0
  0
LINE
  5
109
330
1F
100
AcDbEntity
  8
0
100
AcDbLine
 10
-14.77565801434425
 20
9.301609695556138
 30
0.0
 11
-14.83003872884861
 21
9.337945727302746
 31
0.0
  0
LINE
  5
10A
330
1F
100
AcDbEntity
  8
0
100
AcDbLine
 10
-14.83003872884861
 20
9.337945727302746
 30
0.0
 11
-14.88869701266606
 21
9.366872791666173
 31
0.0
  0
LINE
  5
10B
330
1F
100
AcDbEntity
  8
0
100
AcDbLine
 10
-14.88869701266606
 20
9.366872791666173
 30
0.0
 11
-14.95062920629734
 21
9.387895938555069
 31
0.0
  0
LINE
  5
10C
330
1F
100
AcDbEntity
  8
0
100
AcDbLine
 10
-14.95062920629734
 20
9.387895938555069
 30
0.0
 11
-15.01477563273858
 21
9.400655456097446
 31
0.0
  0
LINE
  5
10D
330
1F
100
AcDbEntity
  8
0
100
AcDbLine
 10
-15.01477563273858
 20
9.400655456097446
 30
0.0
 11
-15.08003872884864
 21
9.404933025410546
 31
0.0
  0
LINE
  5
10E
330
1F
100
AcDbEntity
  8
0
100
AcDbLine
 10
-14.58003872884865
 20
8.904933025410504
 30
0.0
 11
-14.58003872884918
 21
2.915718696757651
 31
0.0
  0
LINE
  5
10F
330
1F
100
AcDbEntity
  8
0
100
AcDbLine
 10
-16.33827172782538
 20
8.196968696757807
 30
0.0
 11
-17.29878872884648
 21
8.196968696757894
 31
0.0
  0
LINE
  5
110
330
1F
100
AcDbEntity
  8
0
100
AcDbLine
 10
-15.080038728849
 20
5.415718696757697
 30
0.0
 11
-16.33827172782562
 21
5.41571869675781
 31
0.0
  0
LINE
  5
111
330
1F
100
AcDbEntity
  8
0
100
AcDbLine
 10
-16.33827172782538
 20
8.196968696757807
 30
0.0
 11
-16.33827172782562
 21
5.41571869675781
 31
0.0
  0
LINE
  5
112
330
1F
100
AcDbEntity
  8
0
100
AcDbLine
 10
-7.905038684935738
 20
9.369388325595057
 30
0.0
 11
-14.03628868493574
 21
9.369388363432845
 31
0.0
  0
LINE
  5
113
330
1F
100
AcDbEntity
  8
0
100
AcDbLine
 10
-10.90503870962094
 20
5.369388333398897
 30
0.0
 11
-10.90503872884616
 21
2.254126347706326
 31
0.0
  0
LINE
  5
114
330
1F
100
AcDbEntity
  8
0
100
AcDbLine
 10
-10.88781098048162
 20
5.631333198058912
 30
0.0
 11
-10.90503870962094
 21
5.369388333398897
 31
0.0
  0
LINE
  5
115
330
1F
100
AcDbEntity
  8
0
100
AcDbLine
 10
-10.83642458662759
 20
5.888765413019916
 30
0.0
 11
-10.88781098048162
 21
5.631333198058912
 31
0.0
  0
LINE
  5
116
330
1F
100
AcDbEntity
  8
0
100
AcDbLine
 10
-10.75176478604678
 20
6.137250070370561
 30
0.0
 11
-10.83642458662759
 21
5.888765413019916
 31
0.0
  0
LINE
  5
117
330
1F
100
AcDbEntity
  8
0
100
AcDbLine
 10
-10.6352900536213
 20
6.372506406054564
 30
0.0
 11
-10.75176478604678
 21
6.137250070370561
 31
0.0
  0
LINE
  5
118
330
1F
100
AcDbEntity
  8
0
100
AcDbLine
 10
-10.48900695528301
 20
6.590481546640831
 30
0.0
 11
-10.6352900536213
 21
6.372506406054564
 31
0.0
  0
LINE
  5
119
330
1F
100
AcDbEntity
  8
0
100
AcDbLine
 10
-10.31543557994239
 20
6.787420330112786
 30
0.0
 11
-10.48900695528301
 21
6.590481546640831
 31
0.0
  0
LINE
  5
11A
330
1F
100
AcDbEntity
  8
0
100
AcDbLine
 10
-10.11756612471132
 20
6.959929997840741
 30
0.0
 11
-10.31543557994239
 21
6.787420330112786
 31
0.0
  0
LINE
  5
11B
330
1F
100
AcDbEntity
  8
0
100
AcDbLine
 10
-9.898807381347071
 20
7.105038643257711
 30
0.0
 11
-10.11756612471132
 21
6.959929997840741
 31
0.0
  0
LINE
  5
11C
330
1F
100
AcDbEntity
  8
0
100
AcDbLine
 10
-9.662928011366136
 20
7.220246410315528
 30
0.0
 11
-9.898807381347071
 21
7.105038643257711
 31
0.0
  0
LINE
  5
11D
330
1F
100
AcDbEntity
  8
0
100
AcDbLine
 10
-9.41399162150946
 20
7.303568559700766
 30
0.0
 11
-9.662928011366136
 21
7.220246410315528
 31
0.0
  0
LINE
  5
11E
330
1F
100
AcDbEntity
  8
0
100
AcDbLine
 10
-9.1562867580453
 20
7.353569660888327
 30
0.0
 11
-9.41399162150946
 21
7.303568559700766
 31
0.0
  0
LINE
  5
11F
330
1F
100
AcDbEntity
  8
0
100
AcDbLine
 10
-8.894253025931192
 20
7.369388320989732
 30
0.0
 11
-9.1562867580453
 21
7.353569660888327
 31
0.0
  0
LINE
  5
120
330
1F
100
AcDbEntity
  8
0
100
AcDbLine
 10
-8.339775601141916
 20
7.373665886880975
 30
0.0
 11
-8.40503869727834
 21
7.36938831797064
 31
0.0
  0
LINE
  5
121
330
1F
100
AcDbEntity
  8
0
100
AcDbLine
 10
-8.275629174621937
 20
7.386425404027481
 30
0.0
 11
-8.339775601141916
 21
7.373665886880975
 31
0.0
  0
LINE
  5
122
330
1F
100
AcDbEntity
  8
0
100
AcDbLine
 10
-8.213696980860913
 20
7.407448550534167
 30
0.0
 11
-8.275629174621937
 21
7.386425404027481
 31
0.0
  0
LINE
  5
123
330
1F
100
AcDbEntity
  8
0
100
AcDbLine
 10
-8.15503869686494
 20
7.436375614535594
 30
0.0
 11
-8.213696980860913
 21
7.407448550534167
 31
0.0
  0
LINE
  5
124
330
1F
100
AcDbEntity
  8
0
100
AcDbLine
 10
-8.100657982136338
 20
7.472711645946596
 30
0.0
 11
-8.15503869686494
 21
7.436375614535594
 31
0.0
  0
LINE
  5
125
330
1F
100
AcDbEntity
  8
0
100
AcDbLine
 10
-8.051485305781299
 20
7.51583492519548
 30
0.0
 11
-8.100657982136338
 21
7.472711645946596
 31
0.0
  0
LINE
  5
126
330
1F
100
AcDbEntity
  8
0
100
AcDbLine
 10
-8.008362025925496
 20
7.565007601018268
 30
0.0
 11
-8.051485305781299
 21
7.51583492519548
 31
0.0
  0
LINE
  5
127
330
1F
100
AcDbEntity
  8
0
100
AcDbLine
 10
-7.972025993843294
 20
7.619388315298387
 30
0.0
 11
-8.008362025925496
 21
7.565007601018268
 31
0.0
  0
LINE
  5
128
330
1F
100
AcDbEntity
  8
0
100
AcDbLine
 10
-7.943098929117872
 20
7.678046598937327
 30
0.0
 11
-7.972025993843294
 21
7.619388315298387
 31
0.0
  0
LINE
  5
129
330
1F
100
AcDbEntity
  8
0
100
AcDbLine
 10
-7.922075781846779
 20
7.739978792438872
 30
0.0
 11
-7.943098929117872
 21
7.678046598937327
 31
0.0
  0
LINE
  5
12A
330
1F
100
AcDbEntity
  8
0
100
AcDbLine
 10
-7.909316263908541
 20
7.804125218801362
 30
0.0
 11
-7.922075781846779
 21
7.739978792438872
 31
0.0
  0
LINE
  5
12B
330
1F
100
AcDbEntity
  8
0
100
AcDbLine
 10
-7.905038694192688
 20
7.869388314884989
 30
0.0
 11
-7.909316263908541
 21
7.804125218801362
 31
0.0
  0
LINE
  5
12C
330
1F
100
AcDbEntity
  8
0
100
AcDbLine
 10
-8.40503869727834
 20
7.36938831797064
 30
0.0
 11
-8.894253025931192
 21
7.369388320989732
 31
0.0
  0
LINE
  5
12D
330
1F
100
AcDbEntity
  8
0
100
AcDbLine
 10
-7.905038694192688
 20
7.869388314884989
 30
0.0
 11
-7.905038686773027
 21
9.071672316929517
 31
0.0
  0
LINE
  5
12E
330
1F
100
AcDbEntity
  8
0
100
AcDbLine
 10
-7.905038684935738
 20
9.369388325595057
 30
0.0
 11
-7.905038686773027
 21
9.071672316929517
 31
0.0
  0
LINE
  5
12F
330
1F
100
AcDbEntity
  8
0
100
AcDbLine
 10
-14.03628868493574
 20
9.369388363432845
 30
0.0
 11
-14.03628868677311
 21
9.071672354767202
 31
0.0
  0
LINE
  5
130
330
1F
100
AcDbEntity
  8
0
100
AcDbLine
 10
-7.905038686773027
 20
9.071672316929517
 30
0.0
 11
-14.03628868677311
 21
9.071672354767202
 31
0.0
  0
LINE
  5
131
330
1F
100
AcDbEntity
  8
0
100
AcDbLine
 10
-14.03628872884615
 20
2.254126367030211
 30
0.0
 11
-10.90503872884616
 21
2.254126347706326
 31
0.0
  0
LINE
  5
132
330
1F
100
AcDbEntity
  8
0
100
AcDbLine
 10
-7.905038728846977
 20
-5.079407635012638
 30
0.0
 11
-7.905038728846131
 21
1.25412636702959
 31
0.0
  0
LINE
  5
133
330
1F
100
AcDbEntity
  8
0
100
AcDbLine
 10
-11.03628872884693
 20
-5.079407635012281
 30
0.0
 11
-11.03628872884662
 21
-2.448157635014524
 31
0.0
  0
LINE
  5
134
330
1F
100
AcDbEntity
  8
0
100
AcDbLine
 10
-11.03628872884693
 20
-5.079407635012281
 30
0.0
 11
-7.905038728846977
 21
-5.079407635012638
 31
0.0
  0
LINE
  5
135
330
1F
100
AcDbEntity
  8
0
100
AcDbLine
 10
-14.03628872884621
 20
1.551842364985597
 30
0.0
 11
-7.905038728846216
 21
1.55184236498489
 31
0.0
  0
LINE
  5
136
330
1F
100
AcDbEntity
  8
0
100
AcDbLine
 10
-14.03628872884638
 20
0.0518423649855917
 30
0.0
 11
-14.0320111595333
 21
-0.0134207311244339
 31
0.0
  0
LINE
  5
137
330
1F
100
AcDbEntity
  8
0
100
AcDbLine
 10
-14.0320111595333
 20
-0.0134207311244339
 30
0.0
 11
-14.01925164199093
 21
-0.07756715756567
 31
0.0
  0
LINE
  5
138
330
1F
100
AcDbEntity
  8
0
100
AcDbLine
 10
-14.01925164199093
 20
-0.07756715756567
 30
0.0
 11
-13.99822849510205
 21
-0.1394993511969567
 31
0.0
  0
LINE
  5
139
330
1F
100
AcDbEntity
  8
0
100
AcDbLine
 10
-13.99822849510205
 20
-0.1394993511969567
 30
0.0
 11
-13.96930143073863
 21
-0.1981576350144163
 31
0.0
  0
LINE
  5
13A
330
1F
100
AcDbEntity
  8
0
100
AcDbLine
 10
-13.96930143073863
 20
-0.1981576350144163
 30
0.0
 11
-13.93296539899204
 21
-0.2525383495187796
 31
0.0
  0
LINE
  5
13B
330
1F
100
AcDbEntity
  8
0
100
AcDbLine
 10
-13.93296539899204
 20
-0.2525383495187796
 30
0.0
 11
-13.8898421194397
 21
-0.3017110256076982
 31
0.0
  0
LINE
  5
13C
330
1F
100
AcDbEntity
  8
0
100
AcDbLine
 10
-13.8898421194397
 20
-0.3017110256076982
 30
0.0
 11
-13.84066944335079
 21
-0.3448343051600489
 31
0.0
  0
LINE
  5
13D
330
1F
100
AcDbEntity
  8
0
100
AcDbLine
 10
-13.84066944335079
 20
-0.3448343051600489
 30
0.0
 11
-13.78628872884643
 21
-0.3811703369066555
 31
0.0
  0
LINE
  5
13E
330
1F
100
AcDbEntity
  8
0
100
AcDbLine
 10
-13.78628872884643
 20
-0.3811703369066555
 30
0.0
 11
-13.72763044502898
 21
-0.4100974012700869
 31
0.0
  0
LINE
  5
13F
330
1F
100
AcDbEntity
  8
0
100
AcDbLine
 10
-13.72763044502898
 20
-0.4100974012700869
 30
0.0
 11
-13.6656982513977
 21
-0.4311205481589857
 31
0.0
  0
LINE
  5
140
330
1F
100
AcDbEntity
  8
0
100
AcDbLine
 10
-13.6656982513977
 20
-0.4311205481589857
 30
0.0
 11
-13.60155182495647
 21
-0.4438800657013635
 31
0.0
  0
LINE
  5
141
330
1F
100
AcDbEntity
  8
0
100
AcDbLine
 10
-13.60155182495647
 20
-0.4438800657013635
 30
0.0
 11
-13.53628872884644
 21
-0.448157635014466
 31
0.0
  0
LINE
  5
142
330
1F
100
AcDbEntity
  8
0
100
AcDbLine
 10
-11.03628872884662
 20
-2.448157635014524
 30
0.0
 11
-11.05339900609897
 21
-2.187105250574419
 31
0.0
  0
LINE
  5
143
330
1F
100
AcDbEntity
  8
0
100
AcDbLine
 10
-11.05339900609897
 20
-2.187105250574419
 30
0.0
 11
-11.10443707626842
 21
-1.930519544809474
 31
0.0
  0
LINE
  5
144
330
1F
100
AcDbEntity
  8
0
100
AcDbLine
 10
-11.10443707626842
 20
-1.930519544809474
 30
0.0
 11
-11.18852966382396
 21
-1.682790770284326
 31
0.0
  0
LINE
  5
145
330
1F
100
AcDbEntity
  8
0
100
AcDbLine
 10
-11.18852966382396
 20
-1.682790770284326
 30
0.0
 11
-11.30423792127763
 21
-1.448157635014493
 31
0.0
  0
LINE
  5
146
330
1F
100
AcDbEntity
  8
0
100
AcDbLine
 10
-11.30423792127763
 20
-1.448157635014493
 30
0.0
 11
-11.44958204826401
 21
-1.230634776997034
 31
0.0
  0
LINE
  5
147
330
1F
100
AcDbEntity
  8
0
100
AcDbLine
 10
-11.44958204826401
 20
-1.230634776997034
 30
0.0
 11
-11.62207516647336
 21
-1.033944072641361
 31
0.0
  0
LINE
  5
148
330
1F
100
AcDbEntity
  8
0
100
AcDbLine
 10
-11.62207516647336
 20
-1.033944072641361
 30
0.0
 11
-11.81876587082899
 21
-0.8614509544319624
 31
0.0
  0
LINE
  5
149
330
1F
100
AcDbEntity
  8
0
100
AcDbLine
 10
-11.81876587082899
 20
-0.8614509544319624
 30
0.0
 11
-12.03628872884642
 21
-0.7161068274455307
 31
0.0
  0
LINE
  5
14A
330
1F
100
AcDbEntity
  8
0
100
AcDbLine
 10
-12.03628872884642
 20
-0.7161068274455307
 30
0.0
 11
-12.27092186411623
 21
-0.600398569991806
 31
0.0
  0
LINE
  5
14B
330
1F
100
AcDbEntity
  8
0
100
AcDbLine
 10
-12.27092186411623
 20
-0.600398569991806
 30
0.0
 11
-12.51865063864136
 21
-0.5163059824362142
 31
0.0
  0
LINE
  5
14C
330
1F
100
AcDbEntity
  8
0
100
AcDbLine
 10
-12.51865063864136
 20
-0.5163059824362142
 30
0.0
 11
-12.77523634440629
 21
-0.4652679122667003
 31
0.0
  0
LINE
  5
14D
330
1F
100
AcDbEntity
  8
0
100
AcDbLine
 10
-12.77523634440629
 20
-0.4652679122667003
 30
0.0
 11
-13.03628872884639
 21
-0.448157635014292
 31
0.0
  0
LINE
  5
14E
330
1F
100
AcDbEntity
  8
0
100
AcDbLine
 10
-13.03628872884639
 20
-0.448157635014292
 30
0.0
 11
-13.53628872884644
 21
-0.448157635014466
 31
0.0
  0
LINE
  5
14F
330
1F
100
AcDbEntity
  8
0
100
AcDbLine
 10
-14.03628872884638
 20
0.0518423649855917
 30
0.0
 11
-14.03628872884624
 21
1.254126367030198
 31
0.0
  0
LINE
  5
150
330
1F
100
AcDbEntity
  8
0
100
AcDbLine
 10
-14.03628872884621
 20
1.551842364985597
 30
0.0
 11
-14.03628872884624
 21
1.254126367030198
 31
0.0
  0
LINE
  5
151
330
1F
100
AcDbEntity
  8
0
100
AcDbLine
 10
-7.905038728846216
 20
1.55184236498489
 30
0.0
 11
-7.905038728846131
 21
1.25412636702959
 31
0.0
  0
LINE
  5
152
330
1F
100
AcDbEntity
  8
0
100
AcDbLine
 10
-14.03628872884624
 20
1.254126367030198
 30
0.0
 11
-7.905038728846131
 21
1.25412636702959
 31
0.0
  0
LINE
  5
153
330
1F
100
AcDbEntity
  8
0
100
AcDbLine
 10
-21.79878872884967
 20
22.91571869675825
 30
0.0
 11
-21.79878872884967
 21
17.41571869675825
 31
0.0
  0
LINE
  5
154
330
1F
100
AcDbEntity
  8
0
100
AcDbLine
 10
-21.79878872884967
 20
17.41571869675825
 30
0.0
 11
-15.29878872884967
 21
17.41571869675825
 31
0.0
  0
LINE
  5
155
330
1F
100
AcDbEntity
  8
0
100
AcDbLine
 10
-15.29878872884967
 20
17.41571869675825
 30
0.0
 11
-15.29878872884967
 21
10.91571869675825
 31
0.0
  0
LINE
  5
156
330
1F
100
AcDbEntity
  8
0
100
AcDbLine
 10
-15.29878872884967
 20
10.91571869675825
 30
0.0
 11
-11.79878872884971
 21
10.91571869675825
 31
0.0
  0
LINE
  5
157
330
1F
100
AcDbEntity
  8
0
100
AcDbLine
 10
-11.79878872884971
 20
10.91571869675825
 30
0.0
 11
-11.79878872884971
 21
11.63446869675825
 31
0.0
  0
LINE
  5
158
330
1F
100
AcDbEntity
  8
0
100
AcDbLine
 10
-11.79878872884971
 20
11.63446869675825
 30
0.0
 11
-14.58003872884967
 21
11.63446869675825
 31
0.0
  0
LINE
  5
159
330
1F
100
AcDbEntity
  8
0
100
AcDbLine
 10
-14.58003872884967
 20
11.63446869675825
 30
0.0
 11
-14.58003872884967
 21
17.41571869675825
 31
0.0
  0
LINE
  5
15A
330
1F
100
AcDbEntity
  8
0
100
AcDbLine
 10
-13.58003872884966
 20
18.13446869675825
 30
0.0
 11
-21.05730772884966
 21
18.13446869675825
 31
0.0
  0
LINE
  5
15B
330
1F
100
AcDbEntity
  8
0
100
AcDbLine
 10
-21.05730772884966
 20
18.13446869675825
 30
0.0
 11
-21.08003872884967
 21
22.91571869675825
 31
0.0
  0
LINE
  5
15C
330
1F
100
AcDbEntity
  8
0
100
AcDbLine
 10
-21.08003872884967
 20
22.91571869675825
 30
0.0
 11
-21.79878872884967
 21
22.91571869675825
 31
0.0
  0
LINE
  5
15D
330
1F
100
AcDbEntity
  8
0
100
AcDbLine
 10
-9.798788728850152
 20
12.41571869675825
 30
0.0
 11
-10.05984111328977
 21
12.43282897401059
 31
0.0
  0
LINE
  5
15E
330
1F
100
AcDbEntity
  8
0
100
AcDbLine
 10
-10.05984111328977
 20
12.43282897401059
 30
0.0
 11
-10.31642681905472
 21
12.48386704418002
 31
0.0
  0
LINE
  5
15F
330
1F
100
AcDbEntity
  8
0
100
AcDbLine
 10
-10.31642681905472
 20
12.48386704418002
 30
0.0
 11
-10.56415559357989
 21
12.56795963173553
 31
0.0
  0
LINE
  5
160
330
1F
100
AcDbEntity
  8
0
100
AcDbLine
 10
-10.56415559357989
 20
12.56795963173553
 30
0.0
 11
-10.79878872884976
 21
12.68366788918918
 31
0.0
  0
LINE
  5
161
330
1F
100
AcDbEntity
  8
0
100
AcDbLine
 10
-10.79878872884976
 20
12.68366788918918
 30
0.0
 11
-11.01631158686726
 21
12.82901201617555
 31
0.0
  0
LINE
  5
162
330
1F
100
AcDbEntity
  8
0
100
AcDbLine
 10
-11.01631158686726
 20
12.82901201617555
 30
0.0
 11
-11.21300229122297
 21
13.00150513438491
 31
0.0
  0
LINE
  5
163
330
1F
100
AcDbEntity
  8
0
100
AcDbLine
 10
-11.21300229122297
 20
13.00150513438491
 30
0.0
 11
-11.38549540943241
 21
13.19819583874056
 31
0.0
  0
LINE
  5
164
330
1F
100
AcDbEntity
  8
0
100
AcDbLine
 10
-11.38549540943241
 20
13.19819583874056
 30
0.0
 11
-11.53083953641888
 21
13.41571869675802
 31
0.0
  0
LINE
  5
165
330
1F
100
AcDbEntity
  8
0
100
AcDbLine
 10
-11.53083953641888
 20
13.41571869675802
 30
0.0
 11
-11.64654779387263
 21
13.65035183202787
 31
0.0
  0
LINE
  5
166
330
1F
100
AcDbEntity
  8
0
100
AcDbLine
 10
-11.64654779387263
 20
13.65035183202787
 30
0.0
 11
-11.73064038142824
 21
13.89808060655306
 31
0.0
  0
LINE
  5
167
330
1F
100
AcDbEntity
  8
0
100
AcDbLine
 10
-11.73064038142824
 20
13.89808060655306
 30
0.0
 11
-11.78167845159776
 21
14.15466631231805
 31
0.0
  0
LINE
  5
168
330
1F
100
AcDbEntity
  8
0
100
AcDbLine
 10
-11.78167845159776
 20
14.15466631231805
 30
0.0
 11
-11.79878872885015
 21
14.41571869675822
 31
0.0
  0
LINE
  5
169
330
1F
100
AcDbEntity
  8
0
100
AcDbLine
 10
-9.798788728850152
 20
12.41571869675825
 30
0.0
 11
-9.298788728849665
 21
12.41571869675825
 31
0.0
  0
LINE
  5
16A
330
1F
100
AcDbEntity
  8
0
100
AcDbLine
 10
-11.79878872884967
 20
19.41571869675825
 30
0.0
 11
-11.79878872885015
 21
14.41571869675822
 31
0.0
  0
LINE
  5
16B
330
1F
100
AcDbEntity
  8
0
100
AcDbLine
 10
-11.78167845159729
 20
19.67677108119835
 30
0.0
 11
-11.79878872884967
 21
19.41571869675825
 31
0.0
  0
LINE
  5
16C
330
1F
100
AcDbEntity
  8
0
100
AcDbLine
 10
-11.7306403814278
 20
19.93335678696329
 30
0.0
 11
-11.78167845159729
 21
19.67677108119835
 31
0.0
  0
LINE
  5
16D
330
1F
100
AcDbEntity
  8
0
100
AcDbLine
 10
-11.64654779387224
 20
20.18108556148843
 30
0.0
 11
-11.7306403814278
 21
19.93335678696329
 31
0.0
  0
LINE
  5
16E
330
1F
100
AcDbEntity
  8
0
100
AcDbLine
 10
-11.53083953641854
 20
20.41571869675825
 30
0.0
 11
-11.64654779387224
 21
20.18108556148843
 31
0.0
  0
LINE
  5
16F
330
1F
100
AcDbEntity
  8
0
100
AcDbLine
 10
-11.38549540943214
 20
20.63324155477569
 30
0.0
 11
-11.53083953641854
 21
20.41571869675825
 31
0.0
  0
LINE
  5
170
330
1F
100
AcDbEntity
  8
0
100
AcDbLine
 10
-11.21300229122276
 20
20.82993225913134
 30
0.0
 11
-11.38549540943214
 21
20.63324155477569
 31
0.0
  0
LINE
  5
171
330
1F
100
AcDbEntity
  8
0
100
AcDbLine
 10
-11.01631158686711
 20
21.00242537734072
 30
0.0
 11
-11.21300229122276
 21
20.82993225913134
 31
0.0
  0
LINE
  5
172
330
1F
100
AcDbEntity
  8
0
100
AcDbLine
 10
-10.79878872884967
 20
21.14776950432712
 30
0.0
 11
-11.01631158686711
 21
21.00242537734072
 31
0.0
  0
LINE
  5
173
330
1F
100
AcDbEntity
  8
0
100
AcDbLine
 10
-10.56415559357984
 20
21.26347776178082
 30
0.0
 11
-10.79878872884967
 21
21.14776950432712
 31
0.0
  0
LINE
  5
174
330
1F
100
AcDbEntity
  8
0
100
AcDbLine
 10
-10.31642681905471
 20
21.34757034933639
 30
0.0
 11
-10.56415559357984
 21
21.26347776178082
 31
0.0
  0
LINE
  5
175
330
1F
100
AcDbEntity
  8
0
100
AcDbLine
 10
-10.05984111328977
 20
21.39860841950587
 30
0.0
 11
-10.31642681905471
 21
21.34757034933639
 31
0.0
  0
LINE
  5
176
330
1F
100
AcDbEntity
  8
0
100
AcDbLine
 10
-9.798788728849665
 20
21.41571869675825
 30
0.0
 11
-10.05984111328977
 21
21.39860841950587
 31
0.0
  0
LINE
  5
177
330
1F
100
AcDbEntity
  8
0
100
AcDbLine
 10
-21.79878872885015
 20
23.41571869675825
 30
0.0
 11
-21.86405182496018
 21
23.41144112744515
 31
0.0
  0
LINE
  5
178
330
1F
100
AcDbEntity
  8
0
100
AcDbLine
 10
-21.86405182496018
 20
23.41144112744515
 30
0.0
 11
-21.92819825140141
 21
23.39868160990278
 31
0.0
  0
LINE
  5
179
330
1F
100
AcDbEntity
  8
0
100
AcDbLine
 10
-21.92819825140141
 20
23.39868160990278
 30
0.0
 11
-21.9901304450327
 21
23.37765846301389
 31
0.0
  0
LINE
  5
17A
330
1F
100
AcDbEntity
  8
0
100
AcDbLine
 10
-21.9901304450327
 20
23.37765846301389
 30
0.0
 11
-22.04878872885015
 21
23.34873139865046
 31
0.0
  0
LINE
  5
17B
330
1F
100
AcDbEntity
  8
0
100
AcDbLine
 10
-22.04878872885015
 20
23.34873139865046
 30
0.0
 11
-22.10316944335451
 21
23.31239536690386
 31
0.0
  0
LINE
  5
17C
330
1F
100
AcDbEntity
  8
0
100
AcDbLine
 10
-22.10316944335451
 20
23.31239536690386
 30
0.0
 11
-22.15234211944342
 21
23.26927208735152
 31
0.0
  0
LINE
  5
17D
330
1F
100
AcDbEntity
  8
0
100
AcDbLine
 10
-22.15234211944342
 20
23.26927208735152
 30
0.0
 11
-22.19546539899577
 21
23.22009941126261
 31
0.0
  0
LINE
  5
17E
330
1F
100
AcDbEntity
  8
0
100
AcDbLine
 10
-22.19546539899577
 20
23.22009941126261
 30
0.0
 11
-22.23180143074237
 21
23.16571869675825
 31
0.0
  0
LINE
  5
17F
330
1F
100
AcDbEntity
  8
0
100
AcDbLine
 10
-22.23180143074237
 20
23.16571869675825
 30
0.0
 11
-22.26072849510579
 21
23.10706041294079
 31
0.0
  0
LINE
  5
180
330
1F
100
AcDbEntity
  8
0
100
AcDbLine
 10
-22.26072849510579
 20
23.10706041294079
 30
0.0
 11
-22.28175164199469
 21
23.04512821930951
 31
0.0
  0
LINE
  5
181
330
1F
100
AcDbEntity
  8
0
100
AcDbLine
 10
-22.28175164199469
 20
23.04512821930951
 30
0.0
 11
-22.29451115953706
 21
22.98098179286827
 31
0.0
  0
LINE
  5
182
330
1F
100
AcDbEntity
  8
0
100
AcDbLine
 10
-22.29451115953706
 20
22.98098179286827
 30
0.0
 11
-22.29878872885015
 21
22.91571869675825
 31
0.0
  0
LINE
  5
183
330
1F
100
AcDbEntity
  8
0
100
AcDbLine
 10
-22.29878872885015
 20
22.91571869675825
 30
0.0
 11
-22.29878872885015
 21
17.41571869675825
 31
0.0
  0
LINE
  5
184
330
1F
100
AcDbEntity
  8
0
100
AcDbLine
 10
-22.29878872885015
 20
17.41571869675825
 30
0.0
 11
-22.29451115953706
 21
17.35045560064822
 31
0.0
  0
LINE
  5
185
330
1F
100
AcDbEntity
  8
0
100
AcDbLine
 10
-22.29451115953706
 20
17.35045560064822
 30
0.0
 11
-22.28175164199469
 21
17.28630917420699
 31
0.0
  0
LINE
  5
186
330
1F
100
AcDbEntity
  8
0
100
AcDbLine
 10
-22.28175164199469
 20
17.28630917420699
 30
0.0
 11
-22.26072849510579
 21
17.2243769805757
 31
0.0
  0
LINE
  5
187
330
1F
100
AcDbEntity
  8
0
100
AcDbLine
 10
-22.26072849510579
 20
17.2243769805757
 30
0.0
 11
-22.23180143074237
 21
17.16571869675825
 31
0.0
  0
LINE
  5
188
330
1F
100
AcDbEntity
  8
0
100
AcDbLine
 10
-22.23180143074237
 20
17.16571869675825
 30
0.0
 11
-22.19546539899577
 21
17.11133798225389
 31
0.0
  0
LINE
  5
189
330
1F
100
AcDbEntity
  8
0
100
AcDbLine
 10
-22.19546539899577
 20
17.11133798225389
 30
0.0
 11
-22.15234211944342
 21
17.06216530616497
 31
0.0
  0
LINE
  5
18A
330
1F
100
AcDbEntity
  8
0
100
AcDbLine
 10
-22.15234211944342
 20
17.06216530616497
 30
0.0
 11
-22.10316944335451
 21
17.01904202661263
 31
0.0
  0
LINE
  5
18B
330
1F
100
AcDbEntity
  8
0
100
AcDbLine
 10
-22.10316944335451
 20
17.01904202661263
 30
0.0
 11
-22.04878872885015
 21
16.98270599486603
 31
0.0
  0
LINE
  5
18C
330
1F
100
AcDbEntity
  8
0
100
AcDbLine
 10
-22.04878872885015
 20
16.98270599486603
 30
0.0
 11
-21.9901304450327
 21
16.9537789305026
 31
0.0
  0
LINE
  5
18D
330
1F
100
AcDbEntity
  8
0
100
AcDbLine
 10
-21.9901304450327
 20
16.9537789305026
 30
0.0
 11
-21.92819825140141
 21
16.93275578361371
 31
0.0
  0
LINE
  5
18E
330
1F
100
AcDbEntity
  8
0
100
AcDbLine
 10
-21.92819825140141
 20
16.93275578361371
 30
0.0
 11
-21.86405182496018
 21
16.91999626607134
 31
0.0
  0
LINE
  5
18F
330
1F
100
AcDbEntity
  8
0
100
AcDbLine
 10
-21.86405182496018
 20
16.91999626607134
 30
0.0
 11
-21.79878872885015
 21
16.91571869675825
 31
0.0
  0
LINE
  5
190
330
1F
100
AcDbEntity
  8
0
100
AcDbLine
 10
-9.298788728850152
 20
23.41571869675825
 30
0.0
 11
-21.79878872885015
 21
23.41571869675825
 31
0.0
  0
LINE
  5
191
330
1F
100
AcDbEntity
  8
0
100
AcDbLine
 10
-16.29878872884967
 20
16.91571869675822
 30
0.0
 11
-16.23352563274013
 21
16.91144112744515
 31
0.0
  0
LINE
  5
192
330
1F
100
AcDbEntity
  8
0
100
AcDbLine
 10
-16.23352563274013
 20
16.91144112744515
 30
0.0
 11
-16.16937920629889
 21
16.89868160990278
 31
0.0
  0
LINE
  5
193
330
1F
100
AcDbEntity
  8
0
100
AcDbLine
 10
-16.16937920629889
 20
16.89868160990278
 30
0.0
 11
-16.10744701266761
 21
16.87765846301389
 31
0.0
  0
LINE
  5
194
330
1F
100
AcDbEntity
  8
0
100
AcDbLine
 10
-16.10744701266761
 20
16.87765846301389
 30
0.0
 11
-16.04878872885015
 21
16.84873139865047
 31
0.0
  0
LINE
  5
195
330
1F
100
AcDbEntity
  8
0
100
AcDbLine
 10
-16.04878872885015
 20
16.84873139865047
 30
0.0
 11
-15.99440801434579
 21
16.81239536690386
 31
0.0
  0
LINE
  5
196
330
1F
100
AcDbEntity
  8
0
100
AcDbLine
 10
-15.99440801434579
 20
16.81239536690386
 30
0.0
 11
-15.94523533825688
 21
16.76927208735152
 31
0.0
  0
LINE
  5
197
330
1F
100
AcDbEntity
  8
0
100
AcDbLine
 10
-15.94523533825688
 20
16.76927208735152
 30
0.0
 11
-15.90211205870454
 21
16.72009941126261
 31
0.0
  0
LINE
  5
198
330
1F
100
AcDbEntity
  8
0
100
AcDbLine
 10
-15.90211205870454
 20
16.72009941126261
 30
0.0
 11
-15.86577602695793
 21
16.66571869675825
 31
0.0
  0
LINE
  5
199
330
1F
100
AcDbEntity
  8
0
100
AcDbLine
 10
-15.86577602695793
 20
16.66571869675825
 30
0.0
 11
-15.83684896259451
 21
16.60706041294079
 31
0.0
  0
LINE
  5
19A
330
1F
100
AcDbEntity
  8
0
100
AcDbLine
 10
-15.83684896259451
 20
16.60706041294079
 30
0.0
 11
-15.81582581570562
 21
16.54512821930951
 31
0.0
  0
LINE
  5
19B
330
1F
100
AcDbEntity
  8
0
100
AcDbLine
 10
-15.81582581570562
 20
16.54512821930951
 30
0.0
 11
-15.80306629816325
 21
16.48098179286827
 31
0.0
  0
LINE
  5
19C
330
1F
100
AcDbEntity
  8
0
100
AcDbLine
 10
-15.80306629816325
 20
16.48098179286827
 30
0.0
 11
-15.79878872885015
 21
16.41571869675825
 31
0.0
  0
LINE
  5
19D
330
1F
100
AcDbEntity
  8
0
100
AcDbLine
 10
-16.29878872884967
 20
16.91571869675822
 30
0.0
 11
-21.79878872885015
 21
16.91571869675825
 31
0.0
  0
LINE
  5
19E
330
1F
100
AcDbEntity
  8
0
100
AcDbLine
 10
-8.80306629816276
 20
22.98098179286827
 30
0.0
 11
-8.798788728849665
 21
22.91571869675825
 31
0.0
  0
LINE
  5
19F
330
1F
100
AcDbEntity
  8
0
100
AcDbLine
 10
-8.81582581570513
 20
23.04512821930951
 30
0.0
 11
-8.80306629816276
 21
22.98098179286827
 31
0.0
  0
LINE
  5
1A0
330
1F
100
AcDbEntity
  8
0
100
AcDbLine
 10
-8.83684896259402
 20
23.10706041294079
 30
0.0
 11
-8.81582581570513
 21
23.04512821930951
 31
0.0
  0
LINE
  5
1A1
330
1F
100
AcDbEntity
  8
0
100
AcDbLine
 10
-8.865776026957445
 20
23.16571869675825
 30
0.0
 11
-8.83684896259402
 21
23.10706041294079
 31
0.0
  0
LINE
  5
1A2
330
1F
100
AcDbEntity
  8
0
100
AcDbLine
 10
-8.902112058704047
 20
23.22009941126261
 30
0.0
 11
-8.865776026957445
 21
23.16571869675825
 31
0.0
  0
LINE
  5
1A3
330
1F
100
AcDbEntity
  8
0
100
AcDbLine
 10
-8.94523533825639
 20
23.26927208735152
 30
0.0
 11
-8.902112058704047
 21
23.22009941126261
 31
0.0
  0
LINE
  5
1A4
330
1F
100
AcDbEntity
  8
0
100
AcDbLine
 10
-8.994408014345304
 20
23.31239536690386
 30
0.0
 11
-8.94523533825639
 21
23.26927208735152
 31
0.0
  0
LINE
  5
1A5
330
1F
100
AcDbEntity
  8
0
100
AcDbLine
 10
-9.048788728849665
 20
23.34873139865046
 30
0.0
 11
-8.994408014345304
 21
23.31239536690386
 31
0.0
  0
LINE
  5
1A6
330
1F
100
AcDbEntity
  8
0
100
AcDbLine
 10
-9.10744701266712
 20
23.37765846301389
 30
0.0
 11
-9.048788728849665
 21
23.34873139865046
 31
0.0
  0
LINE
  5
1A7
330
1F
100
AcDbEntity
  8
0
100
AcDbLine
 10
-9.169379206298403
 20
23.39868160990278
 30
0.0
 11
-9.10744701266712
 21
23.37765846301389
 31
0.0
  0
LINE
  5
1A8
330
1F
100
AcDbEntity
  8
0
100
AcDbLine
 10
-9.233525632739639
 20
23.41144112744515
 30
0.0
 11
-9.169379206298403
 21
23.39868160990278
 31
0.0
  0
LINE
  5
1A9
330
1F
100
AcDbEntity
  8
0
100
AcDbLine
 10
-9.298788728850152
 20
23.41571869675825
 30
0.0
 11
-9.233525632739639
 21
23.41144112744515
 31
0.0
  0
LINE
  5
1AA
330
1F
100
AcDbEntity
  8
0
100
AcDbLine
 10
-9.233525632739639
 20
21.41999626607134
 30
0.0
 11
-9.298788728849665
 21
21.41571869675825
 31
0.0
  0
LINE
  5
1AB
330
1F
100
AcDbEntity
  8
0
100
AcDbLine
 10
-9.169379206298403
 20
21.43275578361371
 30
0.0
 11
-9.233525632739639
 21
21.41999626607134
 31
0.0
  0
LINE
  5
1AC
330
1F
100
AcDbEntity
  8
0
100
AcDbLine
 10
-9.10744701266712
 20
21.4537789305026
 30
0.0
 11
-9.169379206298403
 21
21.43275578361371
 31
0.0
  0
LINE
  5
1AD
330
1F
100
AcDbEntity
  8
0
100
AcDbLine
 10
-9.048788728849665
 20
21.48270599486603
 30
0.0
 11
-9.10744701266712
 21
21.4537789305026
 31
0.0
  0
LINE
  5
1AE
330
1F
100
AcDbEntity
  8
0
100
AcDbLine
 10
-8.994408014345304
 20
21.51904202661263
 30
0.0
 11
-9.048788728849665
 21
21.48270599486603
 31
0.0
  0
LINE
  5
1AF
330
1F
100
AcDbEntity
  8
0
100
AcDbLine
 10
-8.94523533825639
 20
21.56216530616497
 30
0.0
 11
-8.994408014345304
 21
21.51904202661263
 31
0.0
  0
LINE
  5
1B0
330
1F
100
AcDbEntity
  8
0
100
AcDbLine
 10
-8.902112058704047
 20
21.61133798225389
 30
0.0
 11
-8.94523533825639
 21
21.56216530616497
 31
0.0
  0
LINE
  5
1B1
330
1F
100
AcDbEntity
  8
0
100
AcDbLine
 10
-8.865776026957445
 20
21.66571869675825
 30
0.0
 11
-8.902112058704047
 21
21.61133798225389
 31
0.0
  0
LINE
  5
1B2
330
1F
100
AcDbEntity
  8
0
100
AcDbLine
 10
-8.836848962594022
 20
21.7243769805757
 30
0.0
 11
-8.865776026957445
 21
21.66571869675825
 31
0.0
  0
LINE
  5
1B3
330
1F
100
AcDbEntity
  8
0
100
AcDbLine
 10
-8.81582581570513
 20
21.78630917420699
 30
0.0
 11
-8.836848962594022
 21
21.7243769805757
 31
0.0
  0
LINE
  5
1B4
330
1F
100
AcDbEntity
  8
0
100
AcDbLine
 10
-8.80306629816276
 20
21.85045560064822
 30
0.0
 11
-8.81582581570513
 21
21.78630917420699
 31
0.0
  0
LINE
  5
1B5
330
1F
100
AcDbEntity
  8
0
100
AcDbLine
 10
-8.798788728849665
 20
21.91571869675825
 30
0.0
 11
-8.80306629816276
 21
21.85045560064822
 31
0.0
  0
LINE
  5
1B6
330
1F
100
AcDbEntity
  8
0
100
AcDbLine
 10
-9.298788728849665
 20
21.41571869675825
 30
0.0
 11
-9.798788728849665
 21
21.41571869675825
 31
0.0
  0
LINE
  5
1B7
330
1F
100
AcDbEntity
  8
0
100
AcDbLine
 10
-8.798788728849665
 20
21.91571869675825
 30
0.0
 11
-8.798788728849665
 21
22.91571869675825
 31
0.0
  0
LINE
  5
1B8
330
1F
100
AcDbEntity
  8
0
100
AcDbLine
 10
-8.80306629816276
 20
11.98098179286827
 30
0.0
 11
-8.798788728849665
 21
11.91571869675825
 31
0.0
  0
LINE
  5
1B9
330
1F
100
AcDbEntity
  8
0
100
AcDbLine
 10
-8.81582581570513
 20
12.04512821930951
 30
0.0
 11
-8.80306629816276
 21
11.98098179286827
 31
0.0
  0
LINE
  5
1BA
330
1F
100
AcDbEntity
  8
0
100
AcDbLine
 10
-8.83684896259402
 20
12.10706041294079
 30
0.0
 11
-8.81582581570513
 21
12.04512821930951
 31
0.0
  0
LINE
  5
1BB
330
1F
100
AcDbEntity
  8
0
100
AcDbLine
 10
-8.865776026957445
 20
12.16571869675825
 30
0.0
 11
-8.83684896259402
 21
12.10706041294079
 31
0.0
  0
LINE
  5
1BC
330
1F
100
AcDbEntity
  8
0
100
AcDbLine
 10
-8.902112058704047
 20
12.22009941126261
 30
0.0
 11
-8.865776026957445
 21
12.16571869675825
 31
0.0
  0
LINE
  5
1BD
330
1F
100
AcDbEntity
  8
0
100
AcDbLine
 10
-8.94523533825639
 20
12.26927208735152
 30
0.0
 11
-8.902112058704047
 21
12.22009941126261
 31
0.0
  0
LINE
  5
1BE
330
1F
100
AcDbEntity
  8
0
100
AcDbLine
 10
-8.994408014345304
 20
12.31239536690386
 30
0.0
 11
-8.94523533825639
 21
12.26927208735152
 31
0.0
  0
LINE
  5
1BF
330
1F
100
AcDbEntity
  8
0
100
AcDbLine
 10
-9.048788728849665
 20
12.34873139865047
 30
0.0
 11
-8.994408014345304
 21
12.31239536690386
 31
0.0
  0
LINE
  5
1C0
330
1F
100
AcDbEntity
  8
0
100
AcDbLine
 10
-9.10744701266712
 20
12.37765846301389
 30
0.0
 11
-9.048788728849665
 21
12.34873139865047
 31
0.0
  0
LINE
  5
1C1
330
1F
100
AcDbEntity
  8
0
100
AcDbLine
 10
-9.169379206298403
 20
12.39868160990278
 30
0.0
 11
-9.10744701266712
 21
12.37765846301389
 31
0.0
  0
LINE
  5
1C2
330
1F
100
AcDbEntity
  8
0
100
AcDbLine
 10
-9.233525632739639
 20
12.41144112744515
 30
0.0
 11
-9.169379206298403
 21
12.39868160990278
 31
0.0
  0
LINE
  5
1C3
330
1F
100
AcDbEntity
  8
0
100
AcDbLine
 10
-9.298788728849665
 20
12.41571869675825
 30
0.0
 11
-9.233525632739639
 21
12.41144112744515
 31
0.0
  0
LINE
  5
1C4
330
1F
100
AcDbEntity
  8
0
100
AcDbLine
 10
-9.233525632739639
 20
10.41999626607134
 30
0.0
 11
-9.298788728849665
 21
10.41571869675825
 31
0.0
  0
LINE
  5
1C5
330
1F
100
AcDbEntity
  8
0
100
AcDbLine
 10
-9.169379206298403
 20
10.43275578361371
 30
0.0
 11
-9.233525632739639
 21
10.41999626607134
 31
0.0
  0
LINE
  5
1C6
330
1F
100
AcDbEntity
  8
0
100
AcDbLine
 10
-9.10744701266712
 20
10.4537789305026
 30
0.0
 11
-9.169379206298403
 21
10.43275578361371
 31
0.0
  0
LINE
  5
1C7
330
1F
100
AcDbEntity
  8
0
100
AcDbLine
 10
-9.048788728849665
 20
10.48270599486603
 30
0.0
 11
-9.10744701266712
 21
10.4537789305026
 31
0.0
  0
LINE
  5
1C8
330
1F
100
AcDbEntity
  8
0
100
AcDbLine
 10
-8.994408014345304
 20
10.51904202661263
 30
0.0
 11
-9.048788728849665
 21
10.48270599486603
 31
0.0
  0
LINE
  5
1C9
330
1F
100
AcDbEntity
  8
0
100
AcDbLine
 10
-8.94523533825639
 20
10.56216530616497
 30
0.0
 11
-8.994408014345304
 21
10.51904202661263
 31
0.0
  0
LINE
  5
1CA
330
1F
100
AcDbEntity
  8
0
100
AcDbLine
 10
-8.902112058704047
 20
10.61133798225389
 30
0.0
 11
-8.94523533825639
 21
10.56216530616497
 31
0.0
  0
LINE
  5
1CB
330
1F
100
AcDbEntity
  8
0
100
AcDbLine
 10
-8.865776026957445
 20
10.66571869675825
 30
0.0
 11
-8.902112058704047
 21
10.61133798225389
 31
0.0
  0
LINE
  5
1CC
330
1F
100
AcDbEntity
  8
0
100
AcDbLine
 10
-8.83684896259402
 20
10.7243769805757
 30
0.0
 11
-8.865776026957445
 21
10.66571869675825
 31
0.0
  0
LINE
  5
1CD
330
1F
100
AcDbEntity
  8
0
100
AcDbLine
 10
-8.81582581570513
 20
10.78630917420699
 30
0.0
 11
-8.83684896259402
 21
10.7243769805757
 31
0.0
  0
LINE
  5
1CE
330
1F
100
AcDbEntity
  8
0
100
AcDbLine
 10
-8.80306629816276
 20
10.85045560064822
 30
0.0
 11
-8.81582581570513
 21
10.78630917420699
 31
0.0
  0
LINE
  5
1CF
330
1F
100
AcDbEntity
  8
0
100
AcDbLine
 10
-8.798788728849665
 20
10.91571869675825
 30
0.0
 11
-8.80306629816276
 21
10.85045560064822
 31
0.0
  0
LINE
  5
1D0
330
1F
100
AcDbEntity
  8
0
100
AcDbLine
 10
-9.298788728849665
 20
10.41571869675825
 30
0.0
 11
-15.29878872884967
 21
10.41571869675825
 31
0.0
  0
LINE
  5
1D1
330
1F
100
AcDbEntity
  8
0
100
AcDbLine
 10
-8.798788728849665
 20
10.91571869675825
 30
0.0
 11
-8.798788728849665
 21
11.91571869675825
 31
0.0
  0
LINE
  5
1D2
330
1F
100
AcDbEntity
  8
0
100
AcDbLine
 10
-15.79451115953657
 20
10.85045560064822
 30
0.0
 11
-15.79878872884967
 21
10.91571869675825
 31
0.0
  0
LINE
  5
1D3
330
1F
100
AcDbEntity
  8
0
100
AcDbLine
 10
-15.7817516419942
 20
10.78630917420699
 30
0.0
 11
-15.79451115953657
 21
10.85045560064822
 31
0.0
  0
LINE
  5
1D4
330
1F
100
AcDbEntity
  8
0
100
AcDbLine
 10
-15.76072849510531
 20
10.7243769805757
 30
0.0
 11
-15.7817516419942
 21
10.78630917420699
 31
0.0
  0
LINE
  5
1D5
330
1F
100
AcDbEntity
  8
0
100
AcDbLine
 10
-15.73180143074188
 20
10.66571869675825
 30
0.0
 11
-15.76072849510531
 21
10.7243769805757
 31
0.0
  0
LINE
  5
1D6
330
1F
100
AcDbEntity
  8
0
100
AcDbLine
 10
-15.69546539899528
 20
10.61133798225389
 30
0.0
 11
-15.73180143074188
 21
10.66571869675825
 31
0.0
  0
LINE
  5
1D7
330
1F
100
AcDbEntity
  8
0
100
AcDbLine
 10
-15.65234211944294
 20
10.56216530616497
 30
0.0
 11
-15.69546539899528
 21
10.61133798225389
 31
0.0
  0
LINE
  5
1D8
330
1F
100
AcDbEntity
  8
0
100
AcDbLine
 10
-15.60316944335402
 20
10.51904202661263
 30
0.0
 11
-15.65234211944294
 21
10.56216530616497
 31
0.0
  0
LINE
  5
1D9
330
1F
100
AcDbEntity
  8
0
100
AcDbLine
 10
-15.54878872884967
 20
10.48270599486603
 30
0.0
 11
-15.60316944335402
 21
10.51904202661263
 31
0.0
  0
LINE
  5
1DA
330
1F
100
AcDbEntity
  8
0
100
AcDbLine
 10
-15.49013044503221
 20
10.4537789305026
 30
0.0
 11
-15.54878872884967
 21
10.48270599486603
 31
0.0
  0
LINE
  5
1DB
330
1F
100
AcDbEntity
  8
0
100
AcDbLine
 10
-15.42819825140093
 20
10.43275578361371
 30
0.0
 11
-15.49013044503221
 21
10.4537789305026
 31
0.0
  0
LINE
  5
1DC
330
1F
100
AcDbEntity
  8
0
100
AcDbLine
 10
-15.36405182495969
 20
10.41999626607134
 30
0.0
 11
-15.42819825140093
 21
10.43275578361371
 31
0.0
  0
LINE
  5
1DD
330
1F
100
AcDbEntity
  8
0
100
AcDbLine
 10
-15.29878872884967
 20
10.41571869675825
 30
0.0
 11
-15.36405182495969
 21
10.41999626607134
 31
0.0
  0
LINE
  5
1DE
330
1F
100
AcDbEntity
  8
0
100
AcDbLine
 10
-15.79878872884967
 20
10.91571869675825
 30
0.0
 11
-15.79878872885015
 21
16.41571869675825
 31
0.0
  0
LINE
  5
1DF
330
1F
100
AcDbEntity
  8
0
100
AcDbLine
 10
-20.5651901593295
 20
21.41571869675831
 30
0.0
 11
-20.54815307247404
 21
21.54512821930951
 31
0.0
  0
LINE
  5
1E0
330
1F
100
AcDbEntity
  8
0
100
AcDbLine
 10
-20.54815307247404
 20
21.54512821930951
 30
0.0
 11
-20.49820286122172
 21
21.66571869675825
 31
0.0
  0
LINE
  5
1E1
330
1F
100
AcDbEntity
  8
0
100
AcDbLine
 10
-20.49820286122172
 20
21.66571869675825
 30
0.0
 11
-20.41874354992277
 21
21.76927208735152
 31
0.0
  0
LINE
  5
1E2
330
1F
100
AcDbEntity
  8
0
100
AcDbLine
 10
-20.41874354992277
 20
21.76927208735152
 30
0.0
 11
-20.3151901593295
 21
21.84873139865046
 31
0.0
  0
LINE
  5
1E3
330
1F
100
AcDbEntity
  8
0
100
AcDbLine
 10
-20.3151901593295
 20
21.84873139865046
 30
0.0
 11
-20.19459968188076
 21
21.89868160990278
 31
0.0
  0
LINE
  5
1E4
330
1F
100
AcDbEntity
  8
0
100
AcDbLine
 10
-20.19459968188076
 20
21.89868160990278
 30
0.0
 11
-20.0651901593295
 21
21.91571869675825
 31
0.0
  0
LINE
  5
1E5
330
1F
100
AcDbEntity
  8
0
100
AcDbLine
 10
-20.0651901593295
 20
21.91571869675825
 30
0.0
 11
-19.93578063677824
 21
21.89868160990278
 31
0.0
  0
LINE
  5
1E6
330
1F
100
AcDbEntity
  8
0
100
AcDbLine
 10
-19.93578063677824
 20
21.89868160990278
 30
0.0
 11
-19.8151901593295
 21
21.84873139865046
 31
0.0
  0
LINE
  5
1E7
330
1F
100
AcDbEntity
  8
0
100
AcDbLine
 10
-19.8151901593295
 20
21.84873139865046
 30
0.0
 11
-19.71163676873623
 21
21.76927208735152
 31
0.0
  0
LINE
  5
1E8
330
1F
100
AcDbEntity
  8
0
100
AcDbLine
 10
-19.71163676873623
 20
21.76927208735152
 30
0.0
 11
-19.63217745743728
 21
21.66571869675825
 31
0.0
  0
LINE
  5
1E9
330
1F
100
AcDbEntity
  8
0
100
AcDbLine
 10
-19.63217745743728
 20
21.66571869675825
 30
0.0
 11
-19.58222724618497
 21
21.54512821930951
 31
0.0
  0
LINE
  5
1EA
330
1F
100
AcDbEntity
  8
0
100
AcDbLine
 10
-19.58222724618497
 20
21.54512821930951
 30
0.0
 11
-19.5651901593295
 21
21.41571869675825
 31
0.0
  0
LINE
  5
1EB
330
1F
100
AcDbEntity
  8
0
100
AcDbLine
 10
-20.5651901593295
 20
21.41571869675831
 30
0.0
 11
-20.56519015932901
 21
18.91571869675825
 31
0.0
  0
LINE
  5
1EC
330
1F
100
AcDbEntity
  8
0
100
AcDbLine
 10
-19.56519015932901
 20
18.91571869675825
 30
0.0
 11
-19.5651901593295
 21
21.41571869675825
 31
0.0
  0
LINE
  5
1ED
330
1F
100
AcDbEntity
  8
0
100
AcDbLine
 10
-19.58222724618448
 20
18.78630917420699
 30
0.0
 11
-19.56519015932901
 21
18.91571869675825
 31
0.0
  0
LINE
  5
1EE
330
1F
100
AcDbEntity
  8
0
100
AcDbLine
 10
-19.6321774574368
 20
18.66571869675825
 30
0.0
 11
-19.58222724618448
 21
18.78630917420699
 31
0.0
  0
LINE
  5
1EF
330
1F
100
AcDbEntity
  8
0
100
AcDbLine
 10
-19.71163676873574
 20
18.56216530616497
 30
0.0
 11
-19.6321774574368
 21
18.66571869675825
 31
0.0
  0
LINE
  5
1F0
330
1F
100
AcDbEntity
  8
0
100
AcDbLine
 10
-19.81519015932901
 20
18.48270599486603
 30
0.0
 11
-19.71163676873574
 21
18.56216530616497
 31
0.0
  0
LINE
  5
1F1
330
1F
100
AcDbEntity
  8
0
100
AcDbLine
 10
-19.93578063677776
 20
18.43275578361371
 30
0.0
 11
-19.81519015932901
 21
18.48270599486603
 31
0.0
  0
LINE
  5
1F2
330
1F
100
AcDbEntity
  8
0
100
AcDbLine
 10
-20.06519015932901
 20
18.41571869675825
 30
0.0
 11
-19.93578063677776
 21
18.43275578361371
 31
0.0
  0
LINE
  5
1F3
330
1F
100
AcDbEntity
  8
0
100
AcDbLine
 10
-20.19459968188028
 20
18.43275578361371
 30
0.0
 11
-20.06519015932901
 21
18.41571869675825
 31
0.0
  0
LINE
  5
1F4
330
1F
100
AcDbEntity
  8
0
100
AcDbLine
 10
-20.31519015932901
 20
18.48270599486603
 30
0.0
 11
-20.19459968188028
 21
18.43275578361371
 31
0.0
  0
LINE
  5
1F5
330
1F
100
AcDbEntity
  8
0
100
AcDbLine
 10
-20.41874354992229
 20
18.56216530616497
 30
0.0
 11
-20.31519015932901
 21
18.48270599486603
 31
0.0
  0
LINE
  5
1F6
330
1F
100
AcDbEntity
  8
0
100
AcDbLine
 10
-20.49820286122123
 20
18.66571869675825
 30
0.0
 11
-20.41874354992229
 21
18.56216530616497
 31
0.0
  0
LINE
  5
1F7
330
1F
100
AcDbEntity
  8
0
100
AcDbLine
 10
-20.54815307247355
 20
18.78630917420699
 30
0.0
 11
-20.49820286122123
 21
18.66571869675825
 31
0.0
  0
LINE
  5
1F8
330
1F
100
AcDbEntity
  8
0
100
AcDbLine
 10
-20.56519015932901
 20
18.91571869675825
 30
0.0
 11
-20.54815307247355
 21
18.78630917420699
 31
0.0
  0
LINE
  5
1F9
330
1F
100
AcDbEntity
  8
0
100
AcDbLine
 10
-13.58003872884966
 20
17.41571869675825
 30
0.0
 11
-13.58003872884966
 21
18.13446869675825
 31
0.0
  0
LINE
  5
1FA
330
1F
100
AcDbEntity
  8
0
100
AcDbLine
 10
-14.58003872884967
 20
17.41571869675825
 30
0.0
 11
-13.58003872884966
 21
17.41571869675825
 31
0.0
  0
LINE
  5
1FB
330
1F
100
AcDbEntity
  8
0
100
AcDbLine
 10
-23.29878872884694
 20
-20.42940763501241
 30
0.0
 11
-12.03628872884694
 21
-20.42940763501241
 31
0.0
  0
LINE
  5
1FC
330
1F
100
AcDbEntity
  8
0
100
AcDbLine
 10
-12.03628872884694
 20
-14.9294076350125
 30
0.0
 11
-12.03628872884694
 21
-15.64815763501256
 31
0.0
  0
LINE
  5
1FD
330
1F
100
AcDbEntity
  8
0
100
AcDbLine
 10
-12.03628872884694
 20
-15.64815763501256
 30
0.0
 11
-12.03628872884694
 21
-20.42940763501241
 31
0.0
  0
LINE
  5
1FE
330
1F
100
AcDbEntity
  8
0
100
AcDbLine
 10
-23.29878872884694
 20
-14.9294076350126
 30
0.0
 11
-23.29878872884694
 21
-15.6481576350126
 31
0.0
  0
LINE
  5
1FF
330
1F
100
AcDbEntity
  8
0
100
AcDbLine
 10
-12.03628872884694
 20
-15.64815763501256
 30
0.0
 11
-23.29878872884694
 21
-15.6481576350126
 31
0.0
  0
LINE
  5
200
330
1F
100
AcDbEntity
  8
0
100
AcDbLine
 10
-12.03628872884694
 20
-14.9294076350125
 30
0.0
 11
-23.29878872884694
 21
-14.9294076350126
 31
0.0
  0
LINE
  5
201
330
1F
100
AcDbEntity
  8
0
100
AcDbLine
 10
-23.29878872884694
 20
-15.6481576350126
 30
0.0
 11
-23.29878872884694
 21
-20.42940763501241
 31
0.0
  0
LINE
  5
202
330
1F
100
AcDbEntity
  8
0
100
AcDbLine
 10
-23.29878872884693
 20
-5.079407635012501
 30
0.0
 11
-12.03628872884693
 21
-5.079407635012501
 31
0.0
  0
LINE
  5
203
330
1F
100
AcDbEntity
  8
0
100
AcDbLine
 10
-23.29878872884693
 20
1.770592364987484
 30
0.0
 11
-23.29878872884693
 21
1.051842364987484
 31
0.0
  0
LINE
  5
204
330
1F
100
AcDbEntity
  8
0
100
AcDbLine
 10
-23.29878872884693
 20
1.051842364987484
 30
0.0
 11
-23.29878872884693
 21
-5.079407635012501
 31
0.0
  0
LINE
  5
205
330
1F
100
AcDbEntity
  8
0
100
AcDbLine
 10
-16.66753872884917
 20
1.770592364987484
 30
0.0
 11
-23.29878872884693
 21
1.770592364987484
 31
0.0
  0
LINE
  5
206
330
1F
100
AcDbEntity
  8
0
100
AcDbLine
 10
-16.66753872884917
 20
1.770592364987484
 30
0.0
 11
-12.03628872884693
 21
-2.860657635014769
 31
0.0
  0
LINE
  5
207
330
1F
100
AcDbEntity
  8
0
100
AcDbLine
 10
-16.96525472680484
 20
1.051842364987493
 30
0.0
 11
-23.29878872884693
 21
1.051842364987484
 31
0.0
  0
LINE
  5
208
330
1F
100
AcDbEntity
  8
0
100
AcDbLine
 10
-16.96525472680484
 20
1.051842364987493
 30
0.0
 11
-12.03628872884693
 21
-3.87712363297041
 31
0.0
  0
LINE
  5
209
330
1F
100
AcDbEntity
  8
0
100
AcDbLine
 10
-12.03628872884693
 20
-2.860657635014769
 30
0.0
 11
-12.03628872884693
 21
-3.87712363297041
 31
0.0
  0
LINE
  5
20A
330
1F
100
AcDbEntity
  8
0
100
AcDbLine
 10
-12.03628872884693
 20
-3.87712363297041
 30
0.0
 11
-12.03628872884693
 21
-5.079407635012501
 31
0.0
  0
LINE
  5
20B
330
1F
100
AcDbEntity
  8
0
100
AcDbLine
 10
-6.90503869419269
 20
-4.846781303242025
 30
0.0
 11
-6.90503869419269
 21
23.41571869675825
 31
0.0
  0
LINE
  5
20C
330
1F
100
AcDbEntity
  8
0
100
AcDbLine
 10
20.09496130580723
 20
-4.846781303242025
 30
0.0
 11
20.09496130580723
 21
23.41571869675824
 31
0.0
  0
LINE
  5
20D
330
1F
100
AcDbEntity
  8
0
100
AcDbLine
 10
20.09496130580723
 20
-4.846781303242025
 30
0.0
 11
-6.90503869419269
 21
-4.846781303242025
 31
0.0
  0
LINE
  5
20E
330
1F
100
AcDbEntity
  8
0
100
AcDbLine
 10
20.09496130580723
 20
23.41571869675824
 30
0.0
 11
-6.90503869419269
 21
23.41571869675825
 31
0.0
  0
LINE
  5
20F
330
1F
100
AcDbEntity
  8
0
100
AcDbLine
 10
-14.03628872884615
 20
2.254126367030211
 30
0.0
 11
-14.03628868677311
 21
9.071672354767202
 31
0.0
  0
LINE
  5
210
330
1F
100
AcDbEntity
  8
0
100
AcDbLine
 10
-24.29878872885014
 20
24.39868160990278
 30
0.0
 11
-24.29878872885014
 21
-23.60131839009722
 31
0.0
  0
LINE
  5
211
330
1F
100
AcDbEntity
  8
0
100
AcDbLine
 10
23.70121127114986
 20
24.39868160990278
 30
0.0
 11
-24.29878872885014
 21
24.39868160990278
 31
0.0
  0
LINE
  5
212
330
1F
100
AcDbEntity
  8
0
100
AcDbLine
 10
-24.29878872885014
 20
-23.60131839009722
 30
0.0
 11
23.70121127114986
 21
-23.60131839009722
 31
0.0
  0
LINE
  5
213
330
1F
100
AcDbEntity
  8
0
100
AcDbLine
 10
23.70121127114986
 20
-23.60131839009722
 30
0.0
 11
23.70121127114986
 21
24.39868160990278
 31
0.0
  0
ENDSEC
  0
SECTION
  2
OBJECTS
  0
DICTIONARY
  5
C
330
0
100
AcDbDictionary
  3
ACAD_GROUP
350
D
  3
ACAD_LAYOUT
350
1A
  3
ACAD_MATERIAL
350
43
  3
ACAD_MLEADERSTYLE
350
5B
  3
ACAD_MLINESTYLE
350
17
  3
ACAD_PLOTSETTINGS
350
19
  3
ACAD_SCALELIST
350
47
  3
ACAD_VISUALSTYLE
350
2A
  3
ACDBHEADERROUNDTRIPXREC
350
214
  3
ACDBVARIABLEDICTIONARY
350
235
  3
DWGPROPS
350
23C
  0
DICTIONARY
  5
23D
330
8
100
AcDbDictionary
280
     1
  3
ACAD_XREC_ROUNDTRIP
360
23E
  0
DICTIONARY
  5
D
102
{ACAD_REACTORS
330
C
102
}
330
C
100
AcDbDictionary
  0
DICTIONARY
  5
1A
102
{ACAD_REACTORS
330
C
102
}
330
C
100
AcDbDictionary
  0
DICTIONARY
  5
43
102
{ACAD_REACTORS
330
C
102
}
330
C
100
AcDbDictionary
  3
BYBLOCK
350
45
  3
BYLAYER
350
44
  3
GLOBAL
350
46
  0
DICTIONARY
  5
5B
102
{ACAD_REACTORS
330
C
102
}
330
C
100
AcDbDictionary
  3
STANDARD
350
5C
  0
DICTIONARY
  5
17
102
{ACAD_REACTORS
330
C
102
}
330
C
100
AcDbDictionary
  3
STANDARD
350
18
  0
DICTIONARY
  5
19
102
{ACAD_REACTORS
330
C
102
}
330
C
100
AcDbDictionary
  0
DICTIONARY
  5
47
102
{ACAD_REACTORS
330
C
102
}
330
C
100
AcDbDictionary
  3
A0
350
48
  3
A1
350
49
  3
A2
350
4A
  3
A3
350
4B
  3
A4
350
4C
  3
A5
350
4D
  3
A6
350
4E
  3
A7
350
4F
  3
A8
350
50
  3
A9
350
51
  3
B1
350
52
  3
B2
350
53
  3
B3
350
54
  3
B4
350
55
  3
B5
350
56
  3
B6
350
57
  3
B7
350
58
  0
DICTIONARY
  5
2A
102
{ACAD_REACTORS
330
C
102
}
330
C
100
AcDbDictionary
  3
2DWIREFRAME
350
2F
  3
BASIC
350
32
  3
BRIGHTEN
350
36
  3
COLORCHANGE
350
3A
  3
CONCEPTUAL
350
34
  3
DIM
350
35
  3
EDGECOLOROFF
350
3D
  3
FACEPATTERN
350
39
  3
FLAT
350
2B
  3
FLATWITHEDGES
350
2C
  3
GOURAUD
350
2D
  3
GOURAUDWITHEDGES
350
2E
  3
HIDDEN
350
31
  3
JITTEROFF
350
3B
  3
LINEPATTERN
350
38
  3
OVERHANGOFF
350
3C
  3
REALISTIC
350
33
  3
SHADED
350
42
  3
SHADED_WITH_EDGES
350
41
  3
SHADES_OF_GRAY
350
3E
  3
SKETCHY
350
3F
  3
THICKEN
350
37
  3
WIREFRAME
350
30
  3
X-RAY
350
40
  0
DICTIONARY
  5
214
102
{ACAD_REACTORS
330
C
102
}
330
C
100
AcDbDictionary
  3
CEPSNID
350
21E
  3
CEPSNTYPE
350
21D
  3
DIMSTYLEDATA
350
234
  3
FINGERPRINTGUID
350
21F
  3
HYPERLINKBASE
350
217
  3
INSUNITS
350
21C
  3
LAYOUTDICT
350
219
  3
LWETCUNION
350
21B
  3
PLOTSETDICT
350
21A
  3
PSVPSCALE
350
221
  3
PUCSBASE
350
224
  3
PUCSORGBACK
350
22A
  3
PUCSORGBOTTOM
350
226
  3
PUCSORGFRONT
350
229
  3
PUCSORGLEFT
350
227
  3
PUCSORGRIGHT
350
228
  3
PUCSORGTOP
350
225
  3
PUCSORTHOREF
350
222
  3
PUCSORTHOVIEW
350
223
  3
STYLESHEET
350
218
  3
TSTACKALIGN
350
215
  3
TSTACKSIZE
350
216
  3
UCSBASE
350
22D
  3
UCSORGBACK
350
233
  3
UCSORGBOTTOM
350
22F
  3
UCSORGFRONT
350
232
  3
UCSORGLEFT
350
230
  3
UCSORGRIGHT
350
231
  3
UCSORGTOP
350
22E
  3
UCSORTHOREF
350
22B
  3
UCSORTHOVIEW
350
22C
  3
VERSIONGUID
350
220
  0
DICTIONARY
  5
235
102
{ACAD_REACTORS
330
C
102
}
330
C
100
AcDbDictionary
  3
CANNOSCALE
350
23F
  3
CMLEADERSTYLE
350
237
  3
CTABLESTYLE
350
236
  3
DIMASSOC
350
23A
  3
HIDETEXT
350
23B
  3
MSLTSCALE
350
240
  0
XRECORD
  5
23C
102
{ACAD_REACTORS
330
C
102
}
330
C
100
AcDbXrecord
  1
DWGPROPS COOKIE
  2

  3

  4

  6

  7

  8
loido
  9

300
=
301
=
302
=
303
=
304
=
305
=
306
=
307
=
308
=
309
=
 40
0.0
 41
2460054.770376666
 42
2460054.770376794
  1

 90
        0
  0
XRECORD
  5
23E
102
{ACAD_REACTORS
330
23D
102
}
330
23D
100
AcDbXrecord
102
VTR_0.000_0.000_1.000_1.000_VISUALSTYLE
340
2F
102
VTR_0.000_0.000_1.000_1.000_GRIDDISPLAY
 70
     3
102
VTR_0.000_0.000_1.000_1.000_GRIDMAJOR
 70
     5
102
VTR_0.000_0.000_1.000_1.000_DEFAULTLIGHTING
280
     1
102
VTR_0.000_0.000_1.000_1.000_DEFAULTLIGHTINGTYPE
 70
     1
102
VTR_0.000_0.000_1.000_1.000_BRIGHTNESS
141
0.0
102
VTR_0.000_0.000_1.000_1.000_CONTRAST
142
0.0
  0
MATERIAL
  5
45
102
{ACAD_REACTORS
330
43
102
}
102
{ACAD_XDICTIONARY
360
243
102
}
330
43
100
AcDbMaterial
  1
BYBLOCK
  0
MATERIAL
  5
44
102
{ACAD_REACTORS
330
43
102
}
102
{ACAD_XDICTIONARY
360
241
102
}
330
43
100
AcDbMaterial
  1
BYLAYER
  0
MATERIAL
  5
46
102
{ACAD_REACTORS
330
43
102
}
102
{ACAD_XDICTIONARY
360
245
102
}
330
43
100
AcDbMaterial
  1
GLOBAL
  0
ACAD_PROXY_OBJECT
  5
5C
102
{ACAD_REACTORS
330
5B
102
}
330
5B
100
AcDbProxyObject
 90
      499
 91
      505
 93
      610
310
40901902A4063FBFFFFFE056BD1B81E855B9FC0AD7A3703D0AD73F4214DD185B99185C9900AD7A3703D0AC73F90141901A02B5E8DC0F42B1CFC02B5E8DC0F42B1CFE5764000000000000300FC0
340
14
340
0
340
11
340
0
 94
        0
1001
ACAD_MLEADERVER
1070
     2
  0
MLINESTYLE
  5
18
102
{ACAD_REACTORS
330
17
102
}
330
17
100
AcDbMlineStyle
  2
Standard
 70
     0
  3

 62
   256
 51
90.0
 52
90.0
 71
     2
 49
0.5
 62
   256
  6
BYLAYER
 49
-0.5
 62
   256
  6
BYLAYER
  0
ACAD_PROXY_OBJECT
  5
48
102
{ACAD_REACTORS
330
47
102
}
330
47
100
AcDbProxyObject
 90
      499
 91
      503
 93
       41
310
903313A31580
  0
ACAD_PROXY_OBJECT
  5
49
102
{ACAD_REACTORS
330
47
102
}
330
47
100
AcDbProxyObject
 90
      499
 91
      503
 93
      257
310
90E312F31323822203D2031272D3022000000000000200FC000000000000284000
  0
ACAD_PROXY_OBJECT
  5
4A
102
{ACAD_REACTORS
330
47
102
}
330
47
100
AcDbProxyObject
 90
      499
 91
      503
 93
      249
310
90D312F363422203D2031272D3022000000000000240FC000000000000284000
  0
ACAD_PROXY_OBJECT
  5
4B
102
{ACAD_REACTORS
330
47
102
}
330
47
100
AcDbProxyObject
 90
      499
 91
      503
 93
      249
310
90D312F333222203D2031272D3022000000000000280FC000000000000284000
  0
ACAD_PROXY_OBJECT
  5
4C
102
{ACAD_REACTORS
330
47
102
}
330
47
100
AcDbProxyObject
 90
      499
 91
      503
 93
      249
310
90D312F313622203D2031272D30220000000000002C0FC000000000000284000
  0
ACAD_PROXY_OBJECT
  5
4D
102
{ACAD_REACTORS
330
47
102
}
330
47
100
AcDbProxyObject
 90
      499
 91
      503
 93
      249
310
90D332F333222203D2031272D30220000000000002E0FC000000000000284000
  0
ACAD_PROXY_OBJECT
  5
4E
102
{ACAD_REACTORS
330
47
102
}
330
47
100
AcDbProxyObject
 90
      499
 91
      503
 93
      241
310
90C312F3822203D2031272D3022000000000000300FC000000000000284000
  0
ACAD_PROXY_OBJECT
  5
4F
102
{ACAD_REACTORS
330
47
102
}
330
47
100
AcDbProxyObject
 90
      499
 91
      503
 93
      249
310
90D332F313622203D2031272D3022000000000000320FC000000000000284000
  0
ACAD_PROXY_OBJECT
  5
50
102
{ACAD_REACTORS
330
47
102
}
330
47
100
AcDbProxyObject
 90
      499
 91
      503
 93
      241
310
90C312F3422203D2031272D3022000000000000340FC000000000000284000
  0
ACAD_PROXY_OBJECT
  5
51
102
{ACAD_REACTORS
330
47
102
}
330
47
100
AcDbProxyObject
 90
      499
 91
      503
 93
      241
310
90C332F3822203D2031272D3022000000000000360FC000000000000284000
  0
ACAD_PROXY_OBJECT
  5
52
102
{ACAD_REACTORS
330
47
102
}
330
47
100
AcDbProxyObject
 90
      499
 91
      503
 93
      241
310
90C312F3222203D2031272D3022000000000000380FC000000000000284000
  0
ACAD_PROXY_OBJECT
  5
53
102
{ACAD_REACTORS
330
47
102
}
330
47
100
AcDbProxyObject
 90
      499
 91
      503
 93
      241
310
90C332F3422203D2031272D30220000000000003A0FC000000000000284000
  0
ACAD_PROXY_OBJECT
  5
54
102
{ACAD_REACTORS
330
47
102
}
330
47
100
AcDbProxyObject
 90
      499
 91
      503
 93
      161
310
90A3122203D2031272D30224000000000000284000
  0
ACAD_PROXY_OBJECT
  5
55
102
{ACAD_REACTORS
330
47
102
}
330
47
100
AcDbProxyObject
 90
      499
 91
      503
 93
      257
310
90E312D312F3222203D2031272D30220000000000003E0FC000000000000284000
  0
ACAD_PROXY_OBJECT
  5
56
102
{ACAD_REACTORS
330
47
102
}
330
47
100
AcDbProxyObject
 90
      499
 91
      503
 93
      225
310
90A3322203D2031272D302200000000000002100000000000000284000
  0
ACAD_PROXY_OBJECT
  5
57
102
{ACAD_REACTORS
330
47
102
}
330
47
100
AcDbProxyObject
 90
      499
 91
      503
 93
      225
310
90A3622203D2031272D302200000000000006100000000000000284000
  0
ACAD_PROXY_OBJECT
  5
58
102
{ACAD_REACTORS
330
47
102
}
330
47
100
AcDbProxyObject
 90
      499
 91
      503
 93
      249
310
90D31272D3022203D2031272D30220000000000000A100000000000000284000
  0
ACAD_PROXY_OBJECT
  5
2F
102
{ACAD_REACTORS
330
2A
102
}
330
2A
100
AcDbProxyObject
 90
      499
 91
      501
 93
      436
310
42CC9915DA5C99599C985B595049028333333333333E33F0000000000000F90107901411070040501600405405064090741402480A0340
1001
ACAD
1000
AcDbSavedByObjectVersion
1070
     0
  0
ACAD_PROXY_OBJECT
  5
32
102
{ACAD_REACTORS
330
2A
102
}
330
2A
100
AcDbProxyObject
 90
      499
 91
      501
 93
      388
310
4150985CDA58D07406404333333333333E33F0000000000000F90107A41107004050150841D405064090741402480A0350
1001
ACAD
1000
AcDbSavedByObjectVersion
1070
     0
  0
ACAD_PROXY_OBJECT
  5
36
102
{ACAD_REACTORS
330
2A
102
}
330
2A
100
AcDbProxyObject
 90
      499
 91
      501
 93
      428
310
42109C9A59DA1D195B90C409028333333333333E33F0000000000000F9010790141107004050150841D405064090741402480A029950
1001
ACAD
1000
AcDbSavedByObjectVersion
1070
     0
  0
ACAD_PROXY_OBJECT
  5
3A
102
{ACAD_REACTORS
330
2A
102
}
330
2A
100
AcDbProxyObject
 90
      499
 91
      501
 93
      452
310
42D0DBDB1BDC90DA185B99D95104090240C333333333333E33F0000000000000F90108901411070040501508421405064090741402480A0350
1001
ACAD
1000
AcDbSavedByObjectVersion
1070
     0
  0
ACAD_PROXY_OBJECT
  5
34
102
{ACAD_REACTORS
330
2A
102
}
330
2A
100
AcDbProxyObject
 90
      499
 91
      501
 93
      500
310
4290DBDB98D95C1D1D585B10940D028333333333333E33F0000000000000F90107902409070040501000000000018199010841D405064090740C02480A0340
1001
ACAD
1000
AcDbSavedByObjectVersion
1070
     0
  0
ACAD_PROXY_OBJECT
  5
35
102
{ACAD_REACTORS
330
2A
102
}
330
2A
100
AcDbProxyObject
 90
      499
 91
      501
 93
      412
310
40D11A5B50B409028333333333333E33F0000000000000F9010790141107004050150841D405064090741402480A02677FFFFFD0
1001
ACAD
1000
AcDbSavedByObjectVersion
1070
     0
  0
ACAD_PROXY_OBJECT
  5
3D
102
{ACAD_REACTORS
330
2A
102
}
330
2A
100
AcDbProxyObject
 90
      499
 91
      501
 93
      452
310
43115919D950DBDB1BDC93D999916409028333333333333E33F0000000000000F9010790141107004050150841D405064090741402480A0350
1001
ACAD
1000
AcDbSavedByObjectVersion
1070
     0
  0
ACAD_PROXY_OBJECT
  5
39
102
{ACAD_REACTORS
330
2A
102
}
330
2A
100
AcDbProxyObject
 90
      499
 91
      501
 93
      444
310
42D19858D95C185D1D195C9B90F409028333333333333E33F0000000000000F9010790141107004050150841D405064090741402480A0350
1001
ACAD
1000
AcDbSavedByObjectVersion
1070
     0
  0
ACAD_PROXY_OBJECT
  5
2B
102
{ACAD_REACTORS
330
2A
102
}
330
2A
100
AcDbProxyObject
 90
      499
 91
      501
 93
      380
310
41119B185D240901404333333333333E33F0000000000000F9010740A907004050150841D405064090741402480A1B50
1001
ACAD
1000
AcDbSavedByObjectVersion
1070
     0
  0
ACAD_PROXY_OBJECT
  5
2C
102
{ACAD_REACTORS
330
2A
102
}
330
2A
100
AcDbProxyObject
 90
      499
 91
      501
 93
      468
310
43519B185D15DA5D1A115919D95CD0140901404333333333333E33F0000000000000F90107409019070040501600405405064090741402480A1B50
1001
ACAD
1000
AcDbSavedByObjectVersion
1070
     0
  0
ACAD_PROXY_OBJECT
  5
2D
102
{ACAD_REACTORS
330
2A
102
}
330
2A
100
AcDbProxyObject
 90
      499
 91
      501
 93
      404
310
41D1DBDD5C985D5910240902404333333333333E33F0000000000000F9010740A9070040501641D405064090741402480A1B50
1001
ACAD
1000
AcDbSavedByObjectVersion
1070
     0
  0
ACAD_PROXY_OBJECT
  5
2E
102
{ACAD_REACTORS
330
2A
102
}
330
2A
100
AcDbProxyObject
 90
      499
 91
      501
 93
      492
310
4411DBDD5C985D5915DA5D1A115919D95CD0340902404333333333333E33F0000000000000F90107409019070040501600405405064090741402480A1B50
1001
ACAD
1000
AcDbSavedByObjectVersion
1070
     0
  0
ACAD_PROXY_OBJECT
  5
31
102
{ACAD_REACTORS
330
2A
102
}
330
2A
100
AcDbProxyObject
 90
      499
 91
      501
 93
      476
310
41921A5919195B90640502408333333333333E33F0000000000000F901079024090700405020000000000001110200405405064090740C02480A0340
1001
ACAD
1000
AcDbSavedByObjectVersion
1070
     0
  0
ACAD_PROXY_OBJECT
  5
3B
102
{ACAD_REACTORS
330
2A
102
}
330
2A
100
AcDbProxyObject
 90
      499
 91
      501
 93
      428
310
42529A5D1D195C93D999914409028333333333333E33F0000000000000F9010790141107004050150A41D405064090741402480A0350
1001
ACAD
1000
AcDbSavedByObjectVersion
1070
     0
  0
ACAD_PROXY_OBJECT
  5
38
102
{ACAD_REACTORS
330
2A
102
}
330
2A
100
AcDbProxyObject
 90
      499
 91
      501
 93
      444
310
42D31A5B995C185D1D195C9B90E409028333333333333E33F0000000000000F9010790141107004050750841D405064090741402483A0350
1001
ACAD
1000
AcDbSavedByObjectVersion
1070
     0
  0
ACAD_PROXY_OBJECT
  5
3C
102
{ACAD_REACTORS
330
2A
102
}
330
2A
100
AcDbProxyObject
 90
      499
 91
      501
 93
      444
310
42D3DD995C9A185B99D3D999915409028333333333333E33F0000000000000F9010790141107004050150941D405064090741402480A0350
1001
ACAD
1000
AcDbSavedByObjectVersion
1070
     0
  0
ACAD_PROXY_OBJECT
  5
33
102
{ACAD_REACTORS
330
2A
102
}
330
2A
100
AcDbProxyObject
 90
      499
 91
      501
 93
      428
310
425499585B1A5CDD1A58D08409038333333333333E33F0000000000000F9010740A907004050150800405405064090740C02480A1B40
1001
ACAD
1000
AcDbSavedByObjectVersion
1070
     0
  0
ACAD_PROXY_OBJECT
  5
42
102
{ACAD_REACTORS
330
2A
102
}
330
2A
100
AcDbProxyObject
 90
      499
 91
      501
 93
      420
310
4194DA1859195911B40902404333333333333E33F0000000000000F9010740A41107004050150800405405064090840C02480A0B40
1001
ACAD
1000
AcDbSavedByObjectVersion
1070
     0
  0
ACAD_PROXY_OBJECT
  5
41
102
{ACAD_REACTORS
330
2A
102
}
330
2A
100
AcDbProxyObject
 90
      499
 91
      501
 93
      516
310
4454DA18591959081DDA5D1A08195919D95CD1A40902404333333333333E33F0000000000000F901074090142907004050250800405405064090740C02480A0B40
1001
ACAD
1000
AcDbSavedByObjectVersion
1070
     0
  0
ACAD_PROXY_OBJECT
  5
3E
102
{ACAD_REACTORS
330
2A
102
}
330
2A
100
AcDbProxyObject
 90
      499
 91
      501
 93
      532
310
4394DA1859195CC81BD98811DC985E5174090240C333333333333E33F0000000000000F901079024090741D01000000000000111010841D405064090740C02480A0340
1001
ACAD
1000
AcDbSavedByObjectVersion
1070
     0
  0
ACAD_PROXY_OBJECT
  5
3F
102
{ACAD_REACTORS
330
2A
102
}
330
2A
100
AcDbProxyObject
 90
      499
 91
      501
 93
      476
310
41D4DAD95D18DA1E51840502408333333333333E33F0000000000000F901079024090741D01000000000000111010B41D405064090741802480A0340
1001
ACAD
1000
AcDbSavedByObjectVersion
1070
     0
  0
ACAD_PROXY_OBJECT
  5
37
102
{ACAD_REACTORS
330
2A
102
}
330
2A
100
AcDbProxyObject
 90
      499
 91
      501
 93
      412
310
41D51A1A58DAD95B90D409028333333333333E33F0000000000000F9010790141107004050150C41D405064090741402480A0350
1001
ACAD
1000
AcDbSavedByObjectVersion
1070
     0
  0
ACAD_PROXY_OBJECT
  5
30
102
{ACAD_REACTORS
330
2A
102
}
330
2A
100
AcDbProxyObject
 90
      499
 91
      501
 93
      420
310
4255DA5C99599C985B595059028333333333333E33F0000000000000F90107901411070040501600405405064090740C02480A0340
1001
ACAD
1000
AcDbSavedByObjectVersion
1070
     0
  0
ACAD_PROXY_OBJECT
  5
40
102
{ACAD_REACTORS
330
2A
102
}
330
2A
100
AcDbProxyObject
 90
      499
 91
      501
 93
      404
310
41560B54985E51940902404000000000000E03F0000000000000F9010740501907004050150841D405064090740C02480A1B40
1001
ACAD
1000
AcDbSavedByObjectVersion
1070
     0
  0
XRECORD
  5
21E
102
{ACAD_REACTORS
330
214
102
}
330
214
100
AcDbXrecord
340
0
  0
XRECORD
  5
21D
102
{ACAD_REACTORS
330
214
102
}
330
214
100
AcDbXrecord
 90
        0
  0
XRECORD
  5
234
102
{ACAD_REACTORS
330
214
102
}
330
214
100
AcDbXrecord
1000
DSTYLE
1002
{
1070
   340
340
11
1002
}
  0
XRECORD
  5
21F
102
{ACAD_REACTORS
330
214
102
}
330
214
100
AcDbXrecord
  1
{33bec539-29bf-43b7-9dab-27c42648dce2}
  0
XRECORD
  5
217
102
{ACAD_REACTORS
330
214
102
}
330
214
100
AcDbXrecord
  1

  0
XRECORD
  5
21C
102
{ACAD_REACTORS
330
214
102
}
330
214
100
AcDbXrecord
 90
        1
  0
XRECORD
  5
219
102
{ACAD_REACTORS
330
214
102
}
330
214
100
AcDbXrecord
340
1A
  0
XRECORD
  5
21B
102
{ACAD_REACTORS
330
214
102
}
330
214
100
AcDbXrecord
 90
    10781
  0
XRECORD
  5
21A
102
{ACAD_REACTORS
330
214
102
}
330
214
100
AcDbXrecord
340
19
  0
XRECORD
  5
221
102
{ACAD_REACTORS
330
214
102
}
330
214
100
AcDbXrecord
 40
0.0
  0
XRECORD
  5
224
102
{ACAD_REACTORS
330
214
102
}
330
214
100
AcDbXrecord
340
0
  0
XRECORD
  5
22A
102
{ACAD_REACTORS
330
214
102
}
330
214
100
AcDbXrecord
 10
0.0
 20
0.0
 30
0.0
  0
XRECORD
  5
226
102
{ACAD_REACTORS
330
214
102
}
330
214
100
AcDbXrecord
 10
0.0
 20
0.0
 30
0.0
  0
XRECORD
  5
229
102
{ACAD_REACTORS
330
214
102
}
330
214
100
AcDbXrecord
 10
0.0
 20
0.0
 30
0.0
  0
XRECORD
  5
227
102
{ACAD_REACTORS
330
214
102
}
330
214
100
AcDbXrecord
 10
0.0
 20
0.0
 30
0.0
  0
XRECORD
  5
228
102
{ACAD_REACTORS
330
214
102
}
330
214
100
AcDbXrecord
 10
0.0
 20
0.0
 30
0.0
  0
XRECORD
  5
225
102
{ACAD_REACTORS
330
214
102
}
330
214
100
AcDbXrecord
 10
0.0
 20
0.0
 30
0.0
  0
XRECORD
  5
222
102
{ACAD_REACTORS
330
214
102
}
330
214
100
AcDbXrecord
340
0
  0
XRECORD
  5
223
102
{ACAD_REACTORS
330
214
102
}
330
214
100
AcDbXrecord
 70
     0
  0
XRECORD
  5
218
102
{ACAD_REACTORS
330
214
102
}
330
214
100
AcDbXrecord
  1

  0
XRECORD
  5
215
102
{ACAD_REACTORS
330
214
102
}
330
214
100
AcDbXrecord
 90
        1
  0
XRECORD
  5
216
102
{ACAD_REACTORS
330
214
102
}
330
214
100
AcDbXrecord
 90
       70
  0
XRECORD
  5
22D
102
{ACAD_REACTORS
330
214
102
}
330
214
100
AcDbXrecord
340
0
  0
XRECORD
  5
233
102
{ACAD_REACTORS
330
214
102
}
330
214
100
AcDbXrecord
 10
0.0
 20
0.0
 30
0.0
  0
XRECORD
  5
22F
102
{ACAD_REACTORS
330
214
102
}
330
214
100
AcDbXrecord
 10
0.0
 20
0.0
 30
0.0
  0
XRECORD
  5
232
102
{ACAD_REACTORS
330
214
102
}
330
214
100
AcDbXrecord
 10
0.0
 20
0.0
 30
0.0
  0
XRECORD
  5
230
102
{ACAD_REACTORS
330
214
102
}
330
214
100
AcDbXrecord
 10
0.0
 20
0.0
 30
0.0
  0
XRECORD
  5
231
102
{ACAD_REACTORS
330
214
102
}
330
214
100
AcDbXrecord
 10
0.0
 20
0.0
 30
0.0
  0
XRECORD
  5
22E
102
{ACAD_REACTORS
330
214
102
}
330
214
100
AcDbXrecord
 10
0.0
 20
0.0
 30
0.0
  0
XRECORD
  5
22B
102
{ACAD_REACTORS
330
214
102
}
330
214
100
AcDbXrecord
340
0
  0
XRECORD
  5
22C
102
{ACAD_REACTORS
330
214
102
}
330
214
100
AcDbXrecord
 70
     0
  0
XRECORD
  5
220
102
{ACAD_REACTORS
330
214
102
}
330
214
100
AcDbXrecord
  1
{FAEB1C32-E019-11D5-929B-00C0DF256EC4}
  0
DICTIONARYVAR
  5
23F
102
{ACAD_REACTORS
330
235
102
}
330
235
100
DictionaryVariables
280
     0
  1
1:1
  0
DICTIONARYVAR
  5
237
102
{ACAD_REACTORS
330
235
102
}
330
235
100
DictionaryVariables
280
     0
  1
Standard
  0
DICTIONARYVAR
  5
236
102
{ACAD_REACTORS
330
235
102
}
330
235
100
DictionaryVariables
280
     0
  1
Standard
  0
DICTIONARYVAR
  5
23A
102
{ACAD_REACTORS
330
235
102
}
330
235
100
DictionaryVariables
280
     0
  1
2
  0
DICTIONARYVAR
  5
23B
102
{ACAD_REACTORS
330
235
102
}
330
235
100
DictionaryVariables
280
     0
  1
1
  0
DICTIONARYVAR
  5
240
102
{ACAD_REACTORS
330
235
102
}
330
235
100
DictionaryVariables
280
     0
  1
1
  0
DICTIONARY
  5
243
330
45
100
AcDbDictionary
280
     1
  3
ACAD_XREC_ROUNDTRIP
360
244
  0
DICTIONARY
  5
241
330
44
100
AcDbDictionary
280
     1
  3
ACAD_XREC_ROUNDTRIP
360
242
  0
DICTIONARY
  5
245
330
46
100
AcDbDictionary
280
     1
  3
ACAD_XREC_ROUNDTRIP
360
246
  0
XRECORD
  5
244
102
{ACAD_REACTORS
330
243
102
}
330
243
100
AcDbXrecord
102
MATERIAL
148
0.0
149
0.0
149
0.0
 93
        0
 94
      127
282
     0
 72
     1
 77
     1
171
     1
175
     1
179
     1
273
     0
  0
XRECORD
  5
242
102
{ACAD_REACTORS
330
241
102
}
330
241
100
AcDbXrecord
102
MATERIAL
148
0.0
149
0.0
149
0.0
 93
        0
 94
      127
282
     0
 72
     1
 77
     1
171
     1
175
     1
179
     1
273
     0
  0
XRECORD
  5
246
102
{ACAD_REACTORS
330
245
102
}
330
245
100
AcDbXrecord
102
MATERIAL
148
0.0
149
0.0
149
0.0
 93
        0
 94
      127
282
     0
 72
     1
 77
     1
171
     1
175
     1
179
     1
273
     0
  0
ENDSEC
  0
EOF
